<svg version="1.1" xmlns="http://www.w3.org/2000/svg" xmlns:xlink="http://www.w3.org/1999/xlink" width="16" height="16" viewBox="0,0,16,16"><defs><clipPath id="clip-1"><path d="M0,16v-16l6.66191,0c-0.22004,0.00311 -0.43413,0.05477 -0.62813,0.14801c-1.69936,0.78596 -4.66349,2.15699 -4.66349,2.15699c-0.56192,0.25991 -0.90642,0.83836 -0.86729,1.45624l0.44112,6.96408c0.04337,0.68462 0.54565,1.25259 1.21983,1.37935c0.67418,0.12676 1.34845,-0.21999 1.6375,-0.84211l1.21706,-2.61938c-0.09594,0.34382 -0.06583,0.71039 0.08365,1.0332c-0.39977,0.13746 -0.73133,0.44073 -0.89869,0.8456l-0.65245,1.5784c-0.28861,0.6982 -0.01291,1.50208 0.64345,1.87619l3.20483,1.8267c0.22502,0.12826 0.47496,0.19383 0.72546,0.19672zM16,0v16h-7.84058c0.2505,-0.00289 0.50044,-0.06847 0.72546,-0.19673l3.20481,-1.8267c0.65635,-0.37411 0.93204,-1.17796 0.64346,-1.87615l-0.6524,-1.5784c-0.16743,-0.40508 -0.49923,-0.70846 -0.89927,-0.84583c0.14947,-0.32291 0.17951,-0.68958 0.08343,-1.03347l1.21725,2.61975c0.28906,0.62212 0.96333,0.96886 1.63751,0.8421c0.67418,-0.12676 1.17646,-0.69473 1.21982,-1.37935l0.4411,-6.96415c0.03914,-0.61789 -0.30537,-1.19634 -0.8673,-1.45624l-4.6835,-2.16625c-0.19809,-0.09162 -0.40871,-0.13698 -0.61789,-0.13857zM7.30659,3.71874l0.73012,-1.57139c0.04503,-0.09412 0.08038,-0.1932 0.10509,-0.29576c0.02299,0.09526 0.05556,0.18921 0.09797,0.28048l0.73726,1.58672c-0.24196,-0.16221 -0.53108,-0.25407 -0.83525,-0.25407c-0.30415,0 -0.59324,0.09184 -0.83519,0.25402zM8.53852,0.44026c-0.19947,0.19982 -0.33346,0.44596 -0.39664,0.70818c-0.13183,-0.54746 -0.56532,-0.98729 -1.13473,-1.11311c-0.10118,-0.02236 -0.20264,-0.03392 -0.30305,-0.03533l2.88499,0c-0.38619,0.00294 -0.76573,0.15493 -1.05057,0.44026z" id="mask"></path></clipPath></defs><g fill="none" fill-rule="nonzero" stroke="none" stroke-width="1" stroke-linecap="butt" stroke-linejoin="miter" stroke-miterlimit="10" stroke-dasharray="" stroke-dashoffset="0" font-family="none" font-weight="none" font-size="none" text-anchor="none" style="mix-blend-mode: normal"><path d="M0,16v-16h16v16z" fill="none"></path><g id="icon" fill="#a87ffb"><path d="M6.46338,9.04618h3.3568l-1.6784,-4.08146z"></path><path d="M6.46338,9.04618h3.3568l-1.6784,-4.08146z"></path><path d="M14.2836,3.66625l-0.4411,6.96415l-4.2424,-9.1304z"></path><path d="M14.2836,3.66625l-0.4411,6.96415l-4.2424,-9.1304z"></path><path d="M6.68349,1.50018c-1.69596,0.78438 -4.68349,2.16624 -4.68349,2.16624l0.44112,6.96408l4.24237,-9.1305z"></path><path d="M6.68349,1.50018c-1.69596,0.78438 -4.68349,2.16624 -4.68349,2.16624l0.44112,6.96408l4.24237,-9.1305z"></path><path d="M10.6943,11.095h-5.10459l-0.65245,1.5784l3.20483,1.8267l3.20481,-1.8267l-0.6524,-1.5784z"></path><path d="M10.6943,11.095h-5.10459l-0.65245,1.5784l3.20483,1.8267l3.20481,-1.8267l-0.6524,-1.5784z"></path></g><path d="" fill="none"></path><path d="M6.46338,9.04618h3.3568l-1.6784,-4.08146z" fill="none"></path><path d="M6.46338,9.04618h3.3568l-1.6784,-4.08146z" fill="none"></path><path d="M14.2836,3.66625l-0.4411,6.96415l-4.2424,-9.1304z" fill="none"></path><path d="M14.2836,3.66625l-0.4411,6.96415l-4.2424,-9.1304z" fill="none"></path><path d="M6.68349,1.50018c-1.69596,0.78438 -4.68349,2.16624 -4.68349,2.16624l0.44112,6.96408l4.24237,-9.1305z" fill="none"></path><path d="M6.68349,1.50018c-1.69596,0.78438 -4.68349,2.16624 -4.68349,2.16624l0.44112,6.96408l4.24237,-9.1305z" fill="none"></path><path d="M10.6943,11.095h-5.10459l-0.65245,1.5784l3.20483,1.8267l3.20481,-1.8267l-0.6524,-1.5784z" fill="none"></path><path d="M10.6943,11.095h-5.10459l-0.65245,1.5784l3.20483,1.8267l3.20481,-1.8267l-0.6524,-1.5784z" fill="none"></path><g clip-path="url(#clip-1)" fill="none"></g></g></svg>