<svg width="16" height="16" viewBox="0 0 16 16" fill="none" xmlns="http://www.w3.org/2000/svg"><path d="M4.25 11.75 2.083 9.583a1.472 1.472 0 0 1-.416-1c0-.168.095-.431.166-.583l2-4.167.417 7.917Z" fill="#01579B"/><path d="M11.667 4.25 9.5 2.083c-.19-.19-.583-.416-.917-.416-.286 0-.567.057-.75.166l-4 2 7.834.417ZM6.833 14.333h5.25v-2.25l-3.916-1.25-3.584 1.25 2.25 2.25Z" fill="#40C4FF"/><path d="M3.833 10.583c0 .669.085.833.417 1.167l.333.333h7.5L8.417 7.917 3.833 3.833v6.75Z" fill="#29B6F6"/><path d="M10.5 3.833H3.833l8.25 8.25h2.25V6.917L11.667 4.25c-.374-.376-.708-.417-1.167-.417Z" fill="#01579B"/></svg>