<svg version="1.1" xmlns="http://www.w3.org/2000/svg" xmlns:xlink="http://www.w3.org/1999/xlink" width="16" height="16" viewBox="0,0,16,16"><defs><clipPath id="clip-1"><path d="M0,16v-16h16v8.39536c-0.27395,-0.53914 -0.61596,-1.02405 -0.99439,-1.40222c-0.94368,-0.94302 -2.55131,-1.65981 -4.00977,-1.65981c-1.45689,0 -3.06308,0.71754 -4.00514,1.66091c-0.94197,0.94328 -1.65736,2.5497 -1.65736,4.00576c0,1.45606 0.71538,3.06248 1.65736,4.00576c0.37777,0.3783 0.86235,0.72028 1.40126,0.99424zM16,16h-2.39642c0.53908,-0.27367 1.02387,-0.61524 1.40203,-0.99314c0.37844,-0.37818 0.72044,-0.86308 0.99439,-1.40222z" id="mask" fill="none"></path></clipPath></defs><g fill="none" fill-rule="nonzero" stroke="none" stroke-width="1" stroke-linecap="butt" stroke-linejoin="miter" stroke-miterlimit="10" stroke-dasharray="" stroke-dashoffset="0" font-family="none" font-weight="none" font-size="none" text-anchor="none" style="mix-blend-mode: normal"><path d="M0,16v-16h16v16z" fill="none"></path><g id="icon" fill="#008ac9"><path d="M10.99583,6.83333c-2.3,0 -4.1625,1.86667 -4.1625,4.16667c0,2.3 1.8625,4.16667 4.1625,4.16667c2.30417,0 4.17083,-1.86667 4.17083,-4.16667c0,-2.3 -1.86667,-4.16667 -4.17083,-4.16667zM13.88333,9.33333h-1.22917c-0.13041,-0.51606 -0.32351,-1.01421 -0.575,-1.48333c0.76005,0.26167 1.40049,0.78822 1.80417,1.48333zM11,7.68333c0.34583,0.5 0.61667,1.05417 0.79583,1.65h-1.59167c0.17917,-0.59583 0.45,-1.15 0.79583,-1.65zM7.775,11.83333c-0.06667,-0.26667 -0.10833,-0.54583 -0.10833,-0.83333c0,-0.2875 0.04167,-0.56667 0.10833,-0.83333h1.40833c-0.03333,0.275 -0.05833,0.55 -0.05833,0.83333c0,0.28333 0.025,0.55833 0.05833,0.83333zM8.11667,12.66667h1.22917c0.13333,0.52083 0.325,1.02083 0.575,1.48333c-0.76085,-0.26024 -1.40174,-0.78716 -1.80417,-1.48333zM9.34583,9.33333h-1.22917c0.40243,-0.69618 1.04332,-1.2231 1.80417,-1.48333c-0.25149,0.46912 -0.44459,0.96727 -0.575,1.48333zM11,14.31667c-0.34583,-0.5 -0.61667,-1.05417 -0.79583,-1.65h1.59167c-0.17917,0.59583 -0.45,1.15 -0.79583,1.65zM11.975,11.83333h-1.95c-0.0375,-0.275 -0.06667,-0.55 -0.06667,-0.83333c0,-0.28333 0.02917,-0.5625 0.06667,-0.83333h1.95c0.0375,0.27083 0.06667,0.55 0.06667,0.83333c0,0.28333 -0.02917,0.55833 -0.06667,0.83333zM12.07917,14.15c0.25,-0.4625 0.44167,-0.9625 0.575,-1.48333h1.22917c-0.40368,0.69512 -1.04412,1.22167 -1.80417,1.48333zM12.81667,11.83333c0.03333,-0.275 0.05833,-0.55 0.05833,-0.83333c0,-0.28333 -0.025,-0.55833 -0.05833,-0.83333h1.40833c0.06667,0.26667 0.10833,0.54583 0.10833,0.83333c0,0.2875 -0.04167,0.56667 -0.10833,0.83333z"></path></g><path d="" fill="none"></path><path d="M15.16667,11l-1.28333,1.66667l-2.8875,2.5l-2.87917,-2.5l-1.28333,-1.66667l1.28333,-1.66667l2.87917,-2.5l2.8875,2.5l1.28333,1.66667" fill="none"></path><g clip-path="url(#clip-1)"><g fill-opacity="0.9" fill="#25a6e9"><path d="M3,2c-1.10457,0 -2,0.89543 -2,2v8c0,1.1046 0.89543,2 2,2h10c1.1046,0 2,-0.8954 2,-2v-6c0,-1.10457 -0.8954,-2 -2,-2h-4.58579c-0.1326,0 -0.25978,-0.05268 -0.35355,-0.14645l-1.41421,-1.41421c-0.28131,-0.28131 -0.66284,-0.43934 -1.06066,-0.43934z"></path></g></g></g></svg>