<svg width="16" height="16" viewBox="0 0 16 16" fill="none" xmlns="http://www.w3.org/2000/svg">
<g clip-path="url(#clip0_1_468)">
<mask id="mask0_1_468" style="mask-type:alpha" maskUnits="userSpaceOnUse" x="0" y="0" width="16" height="16">
<path fill-rule="evenodd" clip-rule="evenodd" d="M16 0H0V16H8.3C7.02974 16 6 14.9703 6 13.7C6 12.3967 6.53045 11.2174 7.38723 10.366C7.73955 10.0159 7.87185 9.48455 7.79057 8.99456C7.76388 8.83367 7.75 8.66846 7.75 8.5C7.75 6.84315 9.09315 5.5 10.75 5.5C12.4069 5.5 13.75 6.84315 13.75 8.5C13.75 8.66846 13.7361 8.83367 13.7094 8.99456C13.6282 9.48455 13.7605 10.0159 14.1128 10.366C14.9695 11.2174 15.5 12.3967 15.5 13.7C15.5 14.9703 14.4703 16 13.2 16H16V0Z" fill="#D9D9D9"/>
</mask>
<g mask="url(#mask0_1_468)">
<path d="M3 2C1.89543 2 1 2.89543 1 4V12C1 13.1046 1.89543 14 3 14H13C14.1046 14 15 13.1046 15 12V6C15 4.89543 14.1046 4 13 4H8.41421C8.28161 4 8.15443 3.94732 8.06066 3.85355L6.64645 2.43934C6.36514 2.15803 5.98361 2 5.58579 2H3Z" fill="#25A6E9" fill-opacity="0.9"/>
</g>
<path fill-rule="evenodd" clip-rule="evenodd" d="M10.75 7C9.92157 7 9.25 7.67157 9.25 8.5C9.25 9.32843 9.92157 10 10.75 10C11.5784 10 12.25 9.32843 12.25 8.5C12.25 7.67157 11.5784 7 10.75 7ZM7.5 13.7C7.5 14.1418 7.85817 14.5 8.3 14.5H13.2C13.6418 14.5 14 14.1418 14 13.7C14 11.9327 12.5673 10.5 10.8 10.5H10.7C8.93269 10.5 7.5 11.9327 7.5 13.7Z" fill="#008AC9"/>
</g>
<defs>
<clipPath id="clip0_1_468">
<rect width="16" height="16" fill="white"/>
</clipPath>
</defs>
</svg>
