<svg version="1.1" xmlns="http://www.w3.org/2000/svg" xmlns:xlink="http://www.w3.org/1999/xlink" width="16" height="16" viewBox="0,0,16,16"><defs><clipPath id="clip-1"><path d="M0,16v-16h16v16zM11,13.14889c0.05699,0.23649 -0.05699,0.23649 0,0zM6.58333,9.75v4.58333c0,0.82843 0.67157,1.5 1.5,1.5h5.83333c0.82843,0 1.5,-0.67157 1.5,-1.5v-4.58333c0,-0.29614 -0.08766,-0.58565 -0.25192,-0.83205l-1.66667,-2.5c-0.2782,-0.4173 -0.74655,-0.66795 -1.24808,-0.66795h-2.5c-0.50153,0 -0.96988,0.25065 -1.24808,0.66795l-1.66667,2.5c-0.16427,0.2464 -0.25192,0.53591 -0.25192,0.83205z" id="mask" fill="none"></path></clipPath></defs><g fill="none" fill-rule="nonzero" stroke="none" stroke-width="1" stroke-linecap="butt" stroke-linejoin="miter" stroke-miterlimit="10" stroke-dasharray="" stroke-dashoffset="0" font-family="none" font-weight="none" font-size="none" text-anchor="none" style="mix-blend-mode: normal"><path d="M0,16v-16h16v16z" fill="none"></path><g id="icon" fill="#ffa268"><path d="M8.08333,14.33333h5.83333v-0.83333h-5.83333zM13.91667,9.75h-1.66667v-2.5h-2.5v2.5h-1.66667l2.91667,2.91667z"></path></g><path d="" fill="none"></path><path d="M13.91667,14.33333l-2.91667,-1.66667l-2.91667,1.66667v-4.58333l1.66667,-2.5h2.5l1.66667,2.5v4.58333" fill="none"></path><g clip-path="url(#clip-1)"><g fill-opacity="0.9" fill="#e45d0c"><path d="M3,2c-1.10457,0 -2,0.89543 -2,2v8c0,1.1046 0.89543,2 2,2h10c1.1046,0 2,-0.8954 2,-2v-6c0,-1.10457 -0.8954,-2 -2,-2h-4.58579c-0.1326,0 -0.25978,-0.05268 -0.35355,-0.14645l-1.41421,-1.41421c-0.28131,-0.28131 -0.66284,-0.43934 -1.06066,-0.43934z"></path></g></g></g></svg>