<svg version="1.1" xmlns="http://www.w3.org/2000/svg" xmlns:xlink="http://www.w3.org/1999/xlink" width="16" height="16" viewBox="0,0,16,16"><defs><clipPath id="clip-1"><path d="M0,16v-16h16l0,12.33701l-2.7076,-2.7076c0.05276,-0.45506 0.11494,-0.60375 -0.03226,-1.31034c-0.14578,-0.69973 -0.60297,-1.57489 -1.15781,-2.12973c-0.59246,-0.59246 -1.54772,-1.05229 -2.29785,-1.1749c-0.75399,-0.12325 -1.75505,0.03915 -2.47113,0.3303c-0.15457,0.07084 -0.29597,0.16745 -0.41815,0.28569l-1.29167,1.25c-0.12179,0.11786 -0.22272,0.2555 -0.29851,0.40708c-0.32296,0.73899 -0.49714,1.77053 -0.36555,2.5308c0.1306,0.75459 0.60383,1.69964 1.1882,2.28401c0.55484,0.55484 1.43,1.01203 2.12973,1.15781c0.70659,0.14721 0.85098,0.07026 1.30161,0.02353l2.71633,2.71633z" id="mask" fill="none"></path></clipPath></defs><g fill="none" fill-rule="nonzero" stroke="none" stroke-width="1" stroke-linecap="butt" stroke-linejoin="miter" stroke-miterlimit="10" stroke-dasharray="" stroke-dashoffset="0" font-family="none" font-weight="none" font-size="none" text-anchor="none" style="mix-blend-mode: normal"><path d="M0,16v-16h16v16z" fill="none"></path><g id="icon" fill="#738295"><path d="M15.45833,13.91667l-3.79167,-3.79167c0.375,-0.95833 0.16667,-2.08333 -0.625,-2.875c-0.83333,-0.83333 -2.08333,-1 -3.08333,-0.54167l1.79167,1.79167l-1.25,1.25l-1.83333,-1.79167c-0.5,1 -0.29167,2.25 0.54167,3.08333c0.79167,0.79167 1.91667,1 2.875,0.625l3.79167,3.79167c0.16667,0.16667 0.41667,0.16667 0.58333,0l0.95833,-0.95833c0.20833,-0.16667 0.20833,-0.45833 0.04167,-0.58333z"></path></g><path d="" fill="none"></path><path d="M15.45833,13.91667l-3.79167,-3.79167c0.375,-0.95833 0.16667,-2.08333 -0.625,-2.875c-0.83333,-0.83333 -2.08333,-1 -3.08333,-0.54167l1.79167,1.79167l-1.25,1.25l-1.83333,-1.79167c-0.5,1 -0.29167,2.25 0.54167,3.08333c0.79167,0.79167 1.91667,1 2.875,0.625l3.79167,3.79167c0.16667,0.16667 0.41667,0.16667 0.58333,0l0.95833,-0.95833c0.20833,-0.16667 0.20833,-0.45833 0.04167,-0.58333z" fill="none"></path><path d="M15.45833,13.91667l-0.04167,0.58333l-0.95833,0.95833h-0.58333l-3.79167,-3.79167l-2.875,-0.625l-0.54167,-3.08333l1.29167,-1.25l3.08333,0.54167l0.625,2.875l3.79167,3.79167" fill="none"></path><g clip-path="url(#clip-1)"><g fill-opacity="0.9" fill="#8b98a9"><path d="M3,2c-1.10457,0 -2,0.89543 -2,2v8c0,1.1046 0.89543,2 2,2h10c1.1046,0 2,-0.8954 2,-2v-6c0,-1.10457 -0.8954,-2 -2,-2h-4.58579c-0.1326,0 -0.25978,-0.05268 -0.35355,-0.14645l-1.41421,-1.41421c-0.28131,-0.28131 -0.66284,-0.43934 -1.06066,-0.43934z"></path></g></g></g></svg>