<svg version="1.1" xmlns="http://www.w3.org/2000/svg" xmlns:xlink="http://www.w3.org/1999/xlink" width="16" height="16" viewBox="0,0,16,16"><defs><clipPath id="clip-1"><path d="M0,16v-16h16v9.44002l-0.74652,-1.21309c-0.12749,-0.38 -0.18182,-0.62034 -0.52095,-0.95947c-0.33913,-0.33913 -0.55552,-0.356 -0.90687,-0.48858l-1.72431,-1.06111c-0.49655,-0.43383 -0.90615,-0.8011 -1.72636,-0.8011c-0.56684,0 -1.22981,0.36727 -1.72636,0.8011l-1.67398,1.03014c-0.38024,0.12823 -0.62057,0.18267 -0.95878,0.52323c-0.33778,0.34013 -0.6136,1.11144 -0.67838,1.64553l-0.00417,3.8317l0,1.58496c0.06606,0.53694 0.34501,1.31008 0.68413,1.6492c0.00584,0.00584 0.01181,0.01166 0.0179,0.01746zM16,16h-1.28537c0.00609,-0.0058 0.01206,-0.01163 0.0179,-0.01746c0.33913,-0.33913 0.356,-0.55552 0.48858,-0.90687l0.77888,-1.26568z" id="mask" fill="none"></path></clipPath></defs><g fill="none" fill-rule="nonzero" stroke="none" stroke-width="1" stroke-linecap="butt" stroke-linejoin="miter" stroke-miterlimit="10" stroke-dasharray="" stroke-dashoffset="0" font-family="none" font-weight="none" font-size="none" text-anchor="none" style="mix-blend-mode: normal"><path d="M0,16v-16h16v16z" fill="none"></path><g id="icon" fill="#17975f"><path d="M14.54167,10.58333h-0.625v-1.66667c0,-0.45833 -0.375,-0.83333 -0.83333,-0.83333h-1.66667v-0.625c0,-0.5753 -0.46637,-1.04167 -1.04167,-1.04167c-0.5753,0 -1.04167,0.46637 -1.04167,1.04167v0.625h-1.66667c-0.45833,0 -0.82917,0.375 -0.82917,0.83333v1.58333h0.62083c0.62083,0 1.125,0.50417 1.125,1.125c0,0.62083 -0.50417,1.125 -1.125,1.125h-0.625v1.58333c0,0.45833 0.375,0.83333 0.83333,0.83333h1.58333v-0.625c0,-0.62083 0.50417,-1.125 1.125,-1.125c0.62083,0 1.125,0.50417 1.125,1.125v0.625h1.58333c0.45833,0 0.83333,-0.375 0.83333,-0.83333v-1.66667h0.625c0.5753,0 1.04167,-0.46637 1.04167,-1.04167c0,-0.5753 -0.46637,-1.04167 -1.04167,-1.04167z"></path></g><path d="" fill="none"></path><path d="M14.54167,10.58333h-0.625v-1.66667c0,-0.45833 -0.375,-0.83333 -0.83333,-0.83333h-1.66667v-0.625c0,-0.5753 -0.46637,-1.04167 -1.04167,-1.04167c-0.5753,0 -1.04167,0.46637 -1.04167,1.04167v0.625h-1.66667c-0.45833,0 -0.82917,0.375 -0.82917,0.83333v1.58333h0.62083c0.62083,0 1.125,0.50417 1.125,1.125c0,0.62083 -0.50417,1.125 -1.125,1.125h-0.625v1.58333c0,0.45833 0.375,0.83333 0.83333,0.83333h1.58333v-0.625c0,-0.62083 0.50417,-1.125 1.125,-1.125c0.62083,0 1.125,0.50417 1.125,1.125v0.625h1.58333c0.45833,0 0.83333,-0.375 0.83333,-0.83333v-1.66667h0.625c0.5753,0 1.04167,-0.46637 1.04167,-1.04167c0,-0.5753 -0.46637,-1.04167 -1.04167,-1.04167z" fill="none"></path><path d="M15.58333,11.625l-1.66667,2.70833l-0.83333,0.83333h-1.58333h-3.83333l-0.83333,-0.83333v-1.58333l0.00417,-3.83333l0.82917,-0.83333l2.70833,-1.66667l2.70833,1.66667l0.83333,0.83333l1.66667,2.70833" fill="none"></path><g clip-path="url(#clip-1)"><g fill-opacity="0.9" fill="#17b877"><path d="M3,2c-1.10457,0 -2,0.89543 -2,2v8c0,1.1046 0.89543,2 2,2h10c1.1046,0 2,-0.8954 2,-2v-6c0,-1.10457 -0.8954,-2 -2,-2h-4.58579c-0.1326,0 -0.25978,-0.05268 -0.35355,-0.14645l-1.41421,-1.41421c-0.28131,-0.28131 -0.66284,-0.43934 -1.06066,-0.43934z"></path></g></g></g></svg>