<svg version="1.1" xmlns="http://www.w3.org/2000/svg" xmlns:xlink="http://www.w3.org/1999/xlink" width="16" height="16" viewBox="0,0,16,16"><defs><clipPath id="clip-1"><path d="M0,16v-16h16v8.7125l-0.29816,-0.44724c-0.1454,-0.50019 -0.26039,-0.87742 -0.67503,-1.29207c-0.41465,-0.41465 -1.29195,-0.74047 -1.94347,-0.80653h-4.16667c-0.65152,0.06606 -1.52883,0.39188 -1.94347,0.80653c-0.41465,0.41465 -0.5037,0.78476 -0.65785,1.2663l-0.73008,1.09512c-0.16427,0.2464 -0.25192,0.53591 -0.25192,0.83205v1.66667c0,0.29614 0.08766,0.58565 0.25192,0.83205l0.7129,1.06936c0.1454,0.50019 0.26039,0.87742 0.67503,1.29207c0.41465,0.41465 1.29195,0.74047 1.94347,0.80653h4.16667c0.65152,-0.06606 1.52883,-0.39188 1.94347,-0.80653c0.41465,-0.41465 0.5037,-0.78476 0.65785,-1.2663l0.31534,-0.47301v2.7125z" id="mask" fill="none"></path></clipPath></defs><g fill="none" fill-rule="nonzero" stroke="none" stroke-width="1" stroke-linecap="butt" stroke-linejoin="miter" stroke-miterlimit="10" stroke-dasharray="" stroke-dashoffset="0" font-family="none" font-weight="none" font-size="none" text-anchor="none" style="mix-blend-mode: normal"><path d="M0,16v-16h16v16z" fill="none"></path><g id="icon" fill="#17975f"><path d="M7.66667,8.91667v0.83333c0,0.22917 -0.1875,0.41667 -0.41667,0.41667h-0.41667v1.66667h0.41667c0.22917,0 0.41667,0.1875 0.41667,0.41667v0.83333c0,0.6875 0.5625,1.25 1.25,1.25h1.25v-0.83333h-1.25c-0.22917,0 -0.41667,-0.1875 -0.41667,-0.41667v-0.83333c0,-0.54167 -0.35,-1.00833 -0.83333,-1.17917v-0.14167c0.48333,-0.17083 0.83333,-0.6375 0.83333,-1.17917v-0.83333c0,-0.22917 0.1875,-0.41667 0.41667,-0.41667h1.25v-0.83333h-1.25c-0.6875,0 -1.25,0.5625 -1.25,1.25zM14.75,10.16667c-0.22917,0 -0.41667,-0.1875 -0.41667,-0.41667v-0.83333c0,-0.6875 -0.5625,-1.25 -1.25,-1.25h-1.25v0.83333h1.25c0.22917,0 0.41667,0.1875 0.41667,0.41667v0.83333c0,0.54167 0.35,1.00833 0.83333,1.17917v0.14167c-0.48333,0.17083 -0.83333,0.63333 -0.83333,1.17917v0.83333c0,0.22917 -0.1875,0.41667 -0.41667,0.41667h-1.25v0.83333h1.25c0.6875,0 1.25,-0.5625 1.25,-1.25v-0.83333c0,-0.22917 0.1875,-0.41667 0.41667,-0.41667h0.41667v-1.66667z"></path></g><path d="" fill="none"></path><path d="M15.16667,11.83333l-0.83333,1.25l-1.25,1.25h-4.16667l-1.25,-1.25l-0.83333,-1.25v-1.66667l0.83333,-1.25l1.25,-1.25h4.16667l1.25,1.25l0.83333,1.25v1.66667" fill="none"></path><g clip-path="url(#clip-1)"><g fill-opacity="0.9" fill="#17b877"><path d="M3,2c-1.10457,0 -2,0.89543 -2,2v8c0,1.1046 0.89543,2 2,2h10c1.1046,0 2,-0.8954 2,-2v-6c0,-1.10457 -0.8954,-2 -2,-2h-4.58579c-0.1326,0 -0.25978,-0.05268 -0.35355,-0.14645l-1.41421,-1.41421c-0.28131,-0.28131 -0.66284,-0.43934 -1.06066,-0.43934z"></path></g></g></g></svg>