<svg version="1.1" xmlns="http://www.w3.org/2000/svg" xmlns:xlink="http://www.w3.org/1999/xlink" width="16" height="16" viewBox="0,0,16,16"><defs><clipPath id="clip-1"><path d="M0,16v-16h16v10.49319c-0.1706,-0.2449 -0.35787,-0.48146 -0.56018,-0.71652l0.14258,-0.92257c-0.02473,0.16002 -0.07521,0.31498 -0.14947,0.45887c0.11561,-0.36516 0.21521,-1.0164 0.11794,-1.33125c-0.09807,-0.31744 -0.55175,-0.79977 -0.85332,-1.03441c-0.34237,-0.1138 -0.97303,-0.2292 -1.28088,-0.1476c-0.30786,0.0816 -0.17909,0.08671 -0.2818,0.14999l-3.29392,0.98635l-0.18937,-0.32637c-0.2547,-0.27694 -0.80486,-0.7501 -1.12578,-0.82388c-0.32092,-0.07377 -0.95694,0.06988 -1.307,0.2078c-0.27146,0.24446 -0.71146,0.75512 -0.79171,1.06316c-0.08042,0.30872 0.02867,0.92133 0.14058,1.25737c-0.02658,-0.05139 -0.05017,-0.10428 -0.07064,-0.1584l0.19388,0.5125c-0.93276,1.02422 -1.55605,1.98934 -1.76968,3.71483c-0.0326,0.41687 0.1103,0.82843 0.39421,1.13541c0.28391,0.30698 0.68308,0.48152 1.10123,0.48152h9.16667c0.14235,0 0.28251,-0.02023 0.41667,-0.05903v1.05903z" id="mask" fill="none"></path></clipPath></defs><g fill="none" fill-rule="nonzero" stroke="none" stroke-width="1" stroke-linecap="butt" stroke-linejoin="miter" stroke-miterlimit="10" stroke-dasharray="" stroke-dashoffset="0" font-family="none" font-weight="none" font-size="none" text-anchor="none" style="mix-blend-mode: normal"><path d="M0,16v-16h16v16z" fill="none"></path><g id="icon" fill="#8964e8"><path d="M13.33333,9.95l0.76667,-1.325c0.06667,-0.12917 0.01667,-0.2875 -0.10833,-0.35417c-0.12164,-0.06341 -0.27157,-0.02367 -0.34583,0.09167l-0.78333,1.35c-1.19049,-0.50414 -2.53451,-0.50414 -3.725,0l-0.78333,-1.35c-0.07872,-0.1208 -0.23893,-0.15762 -0.3625,-0.08333c-0.11667,0.075 -0.15417,0.225 -0.09167,0.34583l0.76667,1.325c-1.29153,0.7378 -2.13405,2.06712 -2.25,3.55h9.16667c-0.11595,-1.48288 -0.95847,-2.8122 -2.25,-3.55zM8.91667,12.35417c-0.28765,0 -0.52083,-0.23319 -0.52083,-0.52083c0,-0.28765 0.23319,-0.52083 0.52083,-0.52083c0.28765,0 0.52083,0.23319 0.52083,0.52083c0,0.28765 -0.23319,0.52083 -0.52083,0.52083zM13.08333,12.35417c-0.28765,0 -0.52083,-0.23319 -0.52083,-0.52083c0,-0.28765 0.23319,-0.52083 0.52083,-0.52083c0.28765,0 0.52083,0.23319 0.52083,0.52083c0,0.28765 -0.23319,0.52083 -0.52083,0.52083z"></path></g><path d="" fill="none"></path><path d="M15.58333,13.5l-2.5,-1.14583h-4.16667l-2.5,1.14583l2.5,-2.1875l-1.01667,-2.6875l0.09167,-0.34583l0.3625,0.08333l0.78333,1.35l4.50833,-1.35l0.34583,-0.09167l0.10833,0.35417l-0.49583,3.20833l1.97917,1.66667" fill="none"></path><g clip-path="url(#clip-1)"><g fill-opacity="0.9" fill="#a87ffb"><path d="M3,2c-1.10457,0 -2,0.89543 -2,2v8c0,1.1046 0.89543,2 2,2h10c1.1046,0 2,-0.8954 2,-2v-6c0,-1.10457 -0.8954,-2 -2,-2h-4.58579c-0.1326,0 -0.25978,-0.05268 -0.35355,-0.14645l-1.41421,-1.41421c-0.28131,-0.28131 -0.66284,-0.43934 -1.06066,-0.43934z"></path></g></g></g></svg>