<svg version="1.1" xmlns="http://www.w3.org/2000/svg" xmlns:xlink="http://www.w3.org/1999/xlink" width="16" height="16" viewBox="0,0,16,16"><defs><clipPath id="clip-1"><path d="M0,16v-16h16v8.66044l-0.63484,-1.09888c-0.32933,-0.35535 -1.05004,-0.76044 -1.49017,-0.85263c0.26826,-0.00228 0.53222,0.06743 0.76437,0.20186l-1.91171,-1.10696c0.22994,0.13315 0.42039,0.32498 0.55186,0.55588c-0.2959,-0.33059 -1.01661,-0.75 -1.48475,-0.8597l-1.59476,-0.00001c-0.4679,0.1119 -1.18223,0.52959 -1.47437,0.85722c0.13128,-0.23075 0.32145,-0.42252 0.55108,-0.55574l-1.91221,1.1093c0.23953,-0.13895 0.51284,-0.20889 0.78967,-0.20206c-0.43385,0.08138 -1.18056,0.50799 -1.53351,0.8855l-0.77918,1.35361c-0.1361,0.43526 -0.12354,1.28512 0.02709,1.74339c-0.14957,-0.23961 -0.22844,-0.51659 -0.22753,-0.79905l-0.00707,2.21277c0.0008,-0.24929 0.06371,-0.49444 0.18305,-0.71331c-0.12352,0.39931 -0.12758,1.18638 -0.00508,1.62239l0.8229,1.42441c0.3663,0.38361 1.07726,0.77539 1.4802,0.85159c-0.26552,0.00082 -0.52649,-0.06886 -0.75627,-0.20191l1.5748,0.91188zM16,16h-2.93451l1.57001,-0.91078c-0.23953,0.13895 -0.51284,0.20889 -0.78967,0.20206c0.43385,-0.08138 1.18056,-0.50799 1.53351,-0.8855l0.62066,-1.07248zM8.73402,15.6602c0.09709,0.1078 0.24292,0.2261 0.41163,0.3398h-0.13826c-0.10676,-0.09894 -0.19899,-0.21331 -0.27337,-0.3398zM13.28812,15.62135c-0.07791,0.14191 -0.1779,0.26962 -0.29562,0.37865h-0.15524c0.18263,-0.12488 0.343,-0.25712 0.45086,-0.37865z" id="mask" fill="none"></path></clipPath></defs><g fill="none" fill-rule="nonzero" stroke="none" stroke-width="1" stroke-linecap="butt" stroke-linejoin="miter" stroke-miterlimit="10" stroke-dasharray="" stroke-dashoffset="0" font-family="none" font-weight="none" font-size="none" text-anchor="none" style="mix-blend-mode: normal"><path d="M0,16v-16h16v16z" fill="none"></path><g id="icon" fill="#738295"><path d="M13.975,11.39167c0.01667,-0.125 0.025,-0.25417 0.025,-0.39167c0,-0.13333 -0.00833,-0.26667 -0.02917,-0.39167l0.84583,-0.65833c0.07516,-0.06195 0.09609,-0.16836 0.05,-0.25417l-0.8,-1.38333c-0.04863,-0.08641 -0.1525,-0.12514 -0.24583,-0.09167l-0.99583,0.4c-0.20833,-0.15833 -0.42917,-0.29167 -0.675,-0.39167l-0.15,-1.05833c-0.01525,-0.09857 -0.10026,-0.17118 -0.2,-0.17083h-1.6c-0.1,0 -0.17917,0.07083 -0.19583,0.17083l-0.15,1.05833c-0.24583,0.1 -0.47083,0.2375 -0.675,0.39167l-0.99583,-0.4c-0.09167,-0.03333 -0.19583,0 -0.24583,0.09167l-0.79583,1.38333c-0.05,0.0875 -0.03333,0.19583 0.05,0.25417l0.84583,0.65833c-0.02083,0.125 -0.0375,0.2625 -0.0375,0.39167c0,0.12917 0.00833,0.26667 0.02917,0.39167l-0.84583,0.65833c-0.07516,0.06195 -0.09609,0.16836 -0.05,0.25417l0.8,1.38333c0.05,0.09167 0.15417,0.12083 0.24583,0.09167l0.99583,-0.4c0.20833,0.15833 0.42917,0.29167 0.675,0.39167l0.15,1.05833c0.02083,0.1 0.1,0.17083 0.2,0.17083h1.6c0.1,0 0.18333,-0.07083 0.19583,-0.17083l0.15,-1.05833c0.24583,-0.1 0.47083,-0.23333 0.675,-0.39167l0.99583,0.4c0.09167,0.03333 0.19583,0 0.24583,-0.09167l0.8,-1.38333c0.05,-0.09167 0.02917,-0.19583 -0.05,-0.25417zM11,12.5c-0.825,0 -1.5,-0.675 -1.5,-1.5c0,-0.825 0.675,-1.5 1.5,-1.5c0.825,0 1.5,0.675 1.5,1.5c0,0.825 -0.675,1.5 -1.5,1.5z"></path></g><path d="" fill="none"></path><path d="M14.86667,9.69583l-0.00417,2.60833l-0.8,1.38333l-2.2625,1.3125h-1.6l-2.26667,-1.3125l-0.8,-1.38333l0.00833,-2.60833l0.79583,-1.38333l2.2625,-1.3125h1.6l2.26667,1.3125l0.8,1.38333" fill="none"></path><g clip-path="url(#clip-1)"><g fill-opacity="0.9" fill="#8b98a9"><path d="M3,2c-1.10457,0 -2,0.89543 -2,2v8c0,1.1046 0.89543,2 2,2h10c1.1046,0 2,-0.8954 2,-2v-6c0,-1.10457 -0.8954,-2 -2,-2h-4.58579c-0.1326,0 -0.25978,-0.05268 -0.35355,-0.14645l-1.41421,-1.41421c-0.28131,-0.28131 -0.66284,-0.43934 -1.06066,-0.43934z"></path></g></g></g></svg>