<svg version="1.1" xmlns="http://www.w3.org/2000/svg" xmlns:xlink="http://www.w3.org/1999/xlink" width="16" height="16" viewBox="0,0,16,16"><defs><clipPath id="clip-1"><path d="M0,16v-16h16v7.69883c-0.00528,-0.00552 -0.01059,-0.01095 -0.0159,-0.01626c-0.34067,-0.34067 -0.55219,-0.35349 -0.90071,-0.48531l-1.44268,-0.96179c-0.15643,-0.20224 -0.18608,-0.28965 -0.49519,-0.49959c-0.3052,-0.20728 -0.90453,-0.3654 -1.31218,-0.40255h-1.66667c-0.40766,0.03715 -1.00698,0.19527 -1.31218,0.40255c-0.30911,0.20993 -0.31332,0.29235 -0.46618,0.48025l-1.42757,0.95171c-0.37548,0.12739 -0.60666,0.17628 -0.94642,0.51841c-0.33932,0.34168 -0.6133,1.11377 -0.67681,1.64708l-0.00417,4.58197c0.06478,0.53617 0.3419,1.31146 0.68257,1.65213c0.16463,0.16463 0.43043,0.31441 0.72169,0.43257zM16,16h-0.73759c0.29126,-0.11815 0.55706,-0.26794 0.72169,-0.43257c0.00532,-0.00532 0.01062,-0.01074 0.0159,-0.01626z" id="mask" fill="none"></path></clipPath></defs><g fill="none" fill-rule="nonzero" stroke="none" stroke-width="1" stroke-linecap="butt" stroke-linejoin="miter" stroke-miterlimit="10" stroke-dasharray="" stroke-dashoffset="0" font-family="none" font-weight="none" font-size="none" text-anchor="none" style="mix-blend-mode: normal"><path d="M0,16v-16h16v16z" fill="none"></path><g id="icon" fill="#c8aaff"><path d="M14.33333,8.5h-1.66667v-0.83333c0,-0.4625 -0.37083,-0.83333 -0.83333,-0.83333h-1.66667c-0.4625,0 -0.83333,0.37083 -0.83333,0.83333v0.83333h-1.66667c-0.4625,0 -0.82917,0.37083 -0.82917,0.83333l-0.00417,4.58333c0,0.4625 0.37083,0.83333 0.83333,0.83333h6.66667c0.4625,0 0.83333,-0.37083 0.83333,-0.83333v-4.58333c0,-0.4625 -0.37083,-0.83333 -0.83333,-0.83333zM11.83333,8.5h-1.66667v-0.83333h1.66667z"></path></g><path d="" fill="none"></path><path d="M15.16667,13.91667l-0.83333,0.83333l-1.66667,-6.25h-0.83333h-1.66667h-0.83333l-1.66667,6.25l-0.83333,-0.83333l0.00417,-4.58333l0.82917,-0.83333l2.5,-1.66667h1.66667l2.5,1.66667l0.83333,0.83333v4.58333" fill="none"></path><g clip-path="url(#clip-1)"><g fill-opacity="0.9" fill="#8964e8"><path d="M3,2c-1.10457,0 -2,0.89543 -2,2v8c0,1.1046 0.89543,2 2,2h10c1.1046,0 2,-0.8954 2,-2v-6c0,-1.10457 -0.8954,-2 -2,-2h-4.58579c-0.1326,0 -0.25978,-0.05268 -0.35355,-0.14645l-1.41421,-1.41421c-0.28131,-0.28131 -0.66284,-0.43934 -1.06066,-0.43934z"></path></g></g></g></svg>