<svg version="1.1" xmlns="http://www.w3.org/2000/svg" xmlns:xlink="http://www.w3.org/1999/xlink" width="16" height="16" viewBox="0,0,16,16"><defs><clipPath id="clip-1"><path d="M0,16v-16h16v7.15883c-0.11884,-0.29277 -0.26938,-0.55995 -0.43413,-0.7247c-0.33913,-0.33913 -1.11226,-0.61807 -1.6492,-0.68413h-5.83333c-0.53694,0.06606 -1.31008,0.34501 -1.6492,0.68413c-0.33913,0.33913 -0.61807,1.11226 -0.68413,1.6492v5.83333c0.06606,0.53694 0.34501,1.31008 0.68413,1.6492c0.16475,0.16475 0.43193,0.3153 0.7247,0.43413zM16,16l-1.15883,0c0.29277,-0.11884 0.55995,-0.26938 0.7247,-0.43413c0.16475,-0.16475 0.3153,-0.43193 0.43413,-0.7247z" id="mask" fill="none"></path></clipPath></defs><g fill="none" fill-rule="nonzero" stroke="none" stroke-width="1" stroke-linecap="butt" stroke-linejoin="miter" stroke-miterlimit="10" stroke-dasharray="" stroke-dashoffset="0" font-family="none" font-weight="none" font-size="none" text-anchor="none" style="mix-blend-mode: normal"><path d="M0,16v-16h16v16z" fill="none"></path><g id="icon" fill="#a2b6ff"><path d="M13.91667,7.25h-5.83333c-0.45833,0 -0.83333,0.375 -0.83333,0.83333v5.83333c0,0.45833 0.375,0.83333 0.83333,0.83333h5.83333c0.45833,0 0.83333,-0.375 0.83333,-0.83333v-5.83333c0,-0.45833 -0.375,-0.83333 -0.83333,-0.83333zM11.83333,13.08333h-2.91667v-0.83333h2.91667zM13.08333,11.41667h-4.16667v-0.83333h4.16667zM13.08333,9.75h-4.16667v-0.83333h4.16667z"></path></g><path d="" fill="none"></path><path d="M14.75,13.91667l-0.83333,0.83333l-2.08333,-1.66667h-2.91667l-0.83333,1.66667l-0.83333,-0.83333l1.66667,-2.5v-2.5l-1.66667,-0.83333l0.83333,-0.83333l5,1.66667l0.83333,-1.66667l0.83333,0.83333l-1.66667,3.33333l1.66667,2.5" fill="none"></path><g clip-path="url(#clip-1)"><g fill-opacity="0.9" fill="#5173f1"><path d="M3,2c-1.10457,0 -2,0.89543 -2,2v8c0,1.1046 0.89543,2 2,2h10c1.1046,0 2,-0.8954 2,-2v-6c0,-1.10457 -0.8954,-2 -2,-2h-4.58579c-0.1326,0 -0.25978,-0.05268 -0.35355,-0.14645l-1.41421,-1.41421c-0.28131,-0.28131 -0.66284,-0.43934 -1.06066,-0.43934z"></path></g></g></g></svg>