<svg version="1.1" xmlns="http://www.w3.org/2000/svg" xmlns:xlink="http://www.w3.org/1999/xlink" width="16" height="16" viewBox="0,0,16,16"><defs><clipPath id="clip-1"><path d="M0,16v-16h16v8.3434c-0.03954,-0.05046 -0.08017,-0.09683 -0.1217,-0.13836c-0.40468,-0.40468 -0.66467,-0.43633 -1.08119,-0.58758l-0.39417,-0.39417c-0.14478,-0.43408 -0.2033,-0.6969 -0.60797,-1.10158c-0.40468,-0.40468 -1.26775,-0.7229 -1.9033,-0.78837h-1.78333c-0.63554,0.06547 -1.49862,0.3837 -1.9033,0.78837c-0.40468,0.40468 -0.44844,0.68741 -0.6002,1.1164l-0.57068,0.62774c-0.39335,0.16442 -0.62925,0.23417 -0.99501,0.63381c-0.36486,0.39866 -0.6475,1.21706 -0.70582,1.81701v1.57542c0.06547,0.63554 0.3837,1.49862 0.78837,1.9033c0.40468,0.40468 0.66477,0.43638 1.08134,0.58764l0.39425,0.39409c0.14488,0.43391 0.20344,0.69662 0.6081,1.10113c0.04158,0.04156 0.08799,0.08221 0.1385,0.12177zM16,16h-2.34389c0.05052,-0.03956 0.09694,-0.08022 0.13852,-0.12179c0.40467,-0.40452 0.44855,-0.68726 0.60039,-1.11616l0.57082,-0.6279c0.39335,-0.16442 0.62925,-0.23417 0.99501,-0.63381c0.01316,-0.01438 0.02621,-0.0293 0.03915,-0.04474z" id="mask" fill="none"></path></clipPath></defs><g fill="none" fill-rule="nonzero" stroke="none" stroke-width="1" stroke-linecap="butt" stroke-linejoin="miter" stroke-miterlimit="10" stroke-dasharray="" stroke-dashoffset="0" font-family="none" font-weight="none" font-size="none" text-anchor="none" style="mix-blend-mode: normal"><path d="M0,16v-16h16v16z" fill="none"></path><g id="icon"><path d="M10.10833,6.83333c-0.65814,0 -1.19167,0.53353 -1.19167,1.19167v0.7h1.7875c0.1625,0 0.29583,0.2375 0.29583,0.4h-2.975c-0.65814,0 -1.19167,0.53353 -1.19167,1.19167v1.57542c0,0.65814 0.53353,1.19167 1.19167,1.19167h0.49167v-1.11667c-0.00111,-0.31567 0.12351,-0.61878 0.34633,-0.84238c0.22282,-0.2236 0.5255,-0.34928 0.84117,-0.34928h2.1875c0.65833,0 1.19167,-0.52958 1.19167,-1.18792v-1.5625c0,-0.65814 -0.53353,-1.19167 -1.19167,-1.19167zM9.80833,7.50417c0.16667,0 0.3,0.05 0.3,0.29583c0,0.24583 -0.13333,0.37125 -0.3,0.37125c-0.1625,0 -0.29583,-0.125 -0.29583,-0.37083c0,-0.24583 0.13333,-0.29625 0.29583,-0.29625z" fill="#3c78aa"></path><path d="M13.48292,8.91667v1.11667c0.001,0.31559 -0.12367,0.6186 -0.34648,0.84211c-0.22281,0.22351 -0.52542,0.34914 -0.84102,0.34914h-2.18708c-0.31567,-0.00111 -0.61878,0.12351 -0.84238,0.34633c-0.2236,0.22282 -0.34928,0.5255 -0.34928,0.84117v1.5625c0,0.65814 0.53353,1.19167 1.19167,1.19167h1.78333c0.65798,0 1.19144,-0.53327 1.19167,-1.19125v-0.7h-1.78792c-0.1625,0 -0.29542,-0.2375 -0.29542,-0.4h2.975c0.65814,0 1.19167,-0.53353 1.19167,-1.19167v-1.575c0,-0.65814 -0.53353,-1.19167 -1.19167,-1.19167zM9.46667,10.79708l-0.00167,0.00167c0.005,-0.00083 0.01042,-0.00042 0.01583,-0.00167zM12.19167,13.82875c0.1625,0 0.29583,0.125 0.29583,0.37083c0,0.16338 -0.13245,0.29583 -0.29583,0.29583c-0.16667,0 -0.3,-0.05 -0.3,-0.29583c0,-0.24583 0.13333,-0.37083 0.3,-0.37083z" fill="#fdd835"></path></g><path d="" fill="none"></path><path d="M15.16667,11.68333l-2.08333,2.29167l-1.19167,1.19125h-1.78333l-2.08333,-2.0825l-1.19167,-1.19167v-1.57542l2.08333,-2.29167l1.19167,-1.19167h1.78333l3.275,3.275v1.575" fill="none"></path><g clip-path="url(#clip-1)"><g fill-opacity="0.9" fill="#8b98a9"><path d="M3,2c-1.10457,0 -2,0.89543 -2,2v8c0,1.1046 0.89543,2 2,2h10c1.1046,0 2,-0.8954 2,-2v-6c0,-1.10457 -0.8954,-2 -2,-2h-4.58579c-0.1326,0 -0.25978,-0.05268 -0.35355,-0.14645l-1.41421,-1.41421c-0.28131,-0.28131 -0.66284,-0.43934 -1.06066,-0.43934z"></path></g></g></g></svg>