<svg version="1.1" xmlns="http://www.w3.org/2000/svg" xmlns:xlink="http://www.w3.org/1999/xlink" width="16" height="16" viewBox="0,0,16,16"><defs><clipPath id="clip-1"><path d="M0,16v-16h16v16h-2.51413l1.57627,-0.87657c0.55193,-0.30693 0.8525,-0.92669 0.75179,-1.55014l-0.86375,-5.34688c-0.18589,-0.44363 -0.75386,-1.10665 -1.1667,-1.35348l-3.89189,-1.68725c-0.0755,-0.05527 0.01407,-0.03014 -0.21091,-0.12776c-0.22402,-0.0972 -0.70749,-0.16142 -0.96904,-0.1165c-0.28177,0.04839 -0.74654,0.29993 -0.93062,0.4877c-0.18408,0.18777 -0.38699,0.66339 -0.46913,0.94012l-1.12703,7.21166c-0.09677,0.61922 0.20164,1.23333 0.74828,1.5399l1.56769,0.8792z" id="mask" fill="none"></path></clipPath></defs><g fill="none" fill-rule="nonzero" stroke="none" stroke-width="1" stroke-linecap="butt" stroke-linejoin="miter" stroke-miterlimit="10" stroke-dasharray="" stroke-dashoffset="0" font-family="none" font-weight="none" font-size="none" text-anchor="none" style="mix-blend-mode: normal"><path d="M0,16v-16h16v16z" fill="none"></path><g id="icon"><path d="M7.66688,13.8125l1.12812,-7.21875c0.01342,-0.08868 0.08215,-0.15879 0.17055,-0.17397c0.0884,-0.01518 0.17658,0.02797 0.21882,0.1071l1.16688,2.17625l0.465,-0.88562c0.03592,-0.06859 0.10695,-0.11158 0.18438,-0.11158c0.07743,0 0.14846,0.04298 0.18437,0.11158l3.14813,5.995z" fill="#ffa000"></path><path d="M11.56375,11l-1.21312,-2.29687l-2.68375,5.10938z" fill="#f57c00"></path><path d="M14.33313,13.8125l-0.86375,-5.34688c-0.01294,-0.07684 -0.06772,-0.14001 -0.14196,-0.1637c-0.07423,-0.02369 -0.15548,-0.00393 -0.21054,0.0512l-5.45,5.45938l3.01563,1.69125c0.18937,0.10573 0.42001,0.10573 0.60938,0z" fill="#ffca28"></path></g><path d="" fill="none"></path><path d="M7.66688,13.8125l1.12812,-7.21875c0.01342,-0.08868 0.08215,-0.15879 0.17055,-0.17397c0.0884,-0.01518 0.17658,0.02797 0.21882,0.1071l1.16688,2.17625l0.465,-0.88562c0.03592,-0.06859 0.10695,-0.11158 0.18438,-0.11158c0.07743,0 0.14846,0.04298 0.18437,0.11158l3.14813,5.995z" fill="none"></path><path d="M11.56375,11l-1.21312,-2.29687l-2.68375,5.10938z" fill="none"></path><path d="M14.33313,13.8125l-0.86375,-5.34688c-0.01294,-0.07684 -0.06772,-0.14001 -0.14196,-0.1637c-0.07423,-0.02369 -0.15548,-0.00393 -0.21054,0.0512l-5.45,5.45938l3.01563,1.69125c0.18937,0.10573 0.42001,0.10573 0.60938,0z" fill="none"></path><path d="M14.33313,13.8125l-3.04125,1.69125h-0.60937l-3.01563,-1.69125l2.68438,-5.10937l-1.55625,-2.10937l0.17055,-0.17397l4.36187,1.88214l0.14196,0.1637l-1.43413,0.971l2.29788,4.37588" fill="none"></path><g clip-path="url(#clip-1)"><g fill-opacity="0.9" fill="#8b98a9"><path d="M3,2c-1.10457,0 -2,0.89543 -2,2v8c0,1.1046 0.89543,2 2,2h10c1.1046,0 2,-0.8954 2,-2v-6c0,-1.10457 -0.8954,-2 -2,-2h-4.58579c-0.1326,0 -0.25978,-0.05268 -0.35355,-0.14645l-1.41421,-1.41421c-0.28131,-0.28131 -0.66284,-0.43934 -1.06066,-0.43934z"></path></g></g></g></svg>