<svg width="16" height="16" viewBox="0 0 16 16" fill="none" xmlns="http://www.w3.org/2000/svg">
<g clip-path="url(#clip0_1_335)">
<mask id="mask0_1_335" style="mask-type:alpha" maskUnits="userSpaceOnUse" x="0" y="0" width="16" height="16">
<path fill-rule="evenodd" clip-rule="evenodd" d="M16 0H0V16H9.206C8.56509 15.7054 7.99079 15.2914 7.51163 14.7869C6.51292 14.8056 5.60575 13.9422 5.74045 12.8242L5.93981 11.1695C5.95206 11.0678 5.97288 10.9692 6.00141 10.8743C6.05838 8.33469 7.8367 6.21991 10.2155 5.65079C10.6993 4.7778 11.8997 4.42477 12.8 5.1L14.1333 6.1C14.2147 6.16103 14.2893 6.22789 14.3568 6.29953C15.0041 6.69369 15.5642 7.21837 16 7.8373V0ZM16 15.058C15.9866 15.0641 15.9732 15.07 15.9595 15.0758L14.4269 15.7305C14.3336 15.7704 14.2386 15.8015 14.143 15.8242C14.0289 15.8868 13.9124 15.9454 13.7936 16H16V15.058Z" fill="#D9D9D9"/>
</mask>
<g mask="url(#mask0_1_335)">
<path d="M3 2C1.89543 2 1 2.89543 1 4V12C1 13.1046 1.89543 14 3 14H13C14.1046 14 15 13.1046 15 12V6C15 4.89543 14.1046 4 13 4H8.41421C8.28161 4 8.15443 3.94732 8.06066 3.85355L6.64645 2.43934C6.36514 2.15803 5.98361 2 5.58579 2H3Z" fill="#A87FFB" fill-opacity="0.9"/>
</g>
<path fill-rule="evenodd" clip-rule="evenodd" d="M11.5 6.95V6.5C11.5 6.29399 11.7352 6.17639 11.9 6.3L13.2333 7.3C13.3667 7.4 13.3667 7.6 13.2333 7.7L11.9 8.7C11.7352 8.82361 11.5 8.70601 11.5 8.5V8.05C10.4276 8.05 9.48816 8.62193 8.97109 9.48006C8.81432 9.74024 8.47632 9.82407 8.21614 9.6673C7.95597 9.51052 7.87214 9.17252 8.02891 8.91235C8.73674 7.73765 10.0261 6.95 11.5 6.95ZM8.94522 12.475C9.48145 13.4038 10.4465 13.9313 11.4482 13.9501C11.7519 13.9557 11.9935 14.2066 11.9878 14.5103C11.9821 14.814 11.7313 15.0556 11.4276 15.0499C10.0564 15.0242 8.72954 14.3014 7.9926 13.025L7.60288 13.25C7.42447 13.353 7.20504 13.2081 7.22968 13.0036L7.42904 11.3489C7.44897 11.1834 7.62218 11.0834 7.77545 11.1489L9.30814 11.8036C9.49759 11.8845 9.51335 12.147 9.33494 12.25L8.94522 12.475ZM14.0548 12.475C14.591 11.5462 14.5654 10.4467 14.0808 9.56987C13.9338 9.30401 14.0302 8.96938 14.2961 8.82245C14.5619 8.67552 14.8966 8.77192 15.0435 9.03778C15.7069 10.2381 15.7443 11.7486 15.0074 13.025L15.3971 13.25C15.5755 13.353 15.5598 13.6155 15.3703 13.6964L13.8376 14.3511C13.6844 14.4166 13.5111 14.3166 13.4912 14.1511L13.2919 12.4964C13.2672 12.2919 13.4866 12.147 13.6651 12.25L14.0548 12.475Z" fill="#8964E8"/>
<circle cx="11.5" cy="11" r="1" fill="#A87FFB" fill-opacity="0.9"/>
</g>
<defs>
<clipPath id="clip0_1_335">
<rect width="16" height="16" fill="white"/>
</clipPath>
</defs>
</svg>
