<svg version="1.1" xmlns="http://www.w3.org/2000/svg" xmlns:xlink="http://www.w3.org/1999/xlink" width="16" height="16" viewBox="0,0,16,16"><defs><clipPath id="clip-1"><path d="M0,16v-16h16l0,9.71201l-2.27267,-2.27267c-0.2813,-0.2813 -0.66284,-0.43934 -1.06066,-0.43934h-3.33333c-0.39782,0 -0.77936,0.15804 -1.06066,0.43934l-2.5,2.5c-0.58579,0.58579 -0.58579,1.53553 0,2.12132l2.5,2.5c0.2813,0.2813 0.66284,0.43934 1.06066,0.43934h3.33333c0.39782,0 0.77936,-0.15804 1.06066,-0.43934l2.27267,-2.27267v3.71201z" id="mask" fill="none"></path></clipPath></defs><g fill="none" fill-rule="nonzero" stroke="none" stroke-width="1" stroke-linecap="butt" stroke-linejoin="miter" stroke-miterlimit="10" stroke-dasharray="" stroke-dashoffset="0" font-family="none" font-weight="none" font-size="none" text-anchor="none" style="mix-blend-mode: normal"><path d="M0,16v-16h16v16z" fill="none"></path><g id="icon" fill="#66ce98"><path d="M9.91667,12.91667l-1.91667,-1.91667l1.91667,-1.91667l-0.58333,-0.58333l-2.5,2.5l2.5,2.5zM12.08333,12.91667l1.91667,-1.91667l-1.91667,-1.91667l0.58333,-0.58333l2.5,2.5l-2.5,2.5z"></path></g><path d="" fill="none"></path><path d="M15.16667,11l-2.5,2.5h-3.33333l-2.5,-2.5l2.5,-2.5h3.33333l2.5,2.5" fill="none"></path><g clip-path="url(#clip-1)"><g fill-opacity="0.9" fill="#17975f"><path d="M3,2c-1.10457,0 -2,0.89543 -2,2v8c0,1.1046 0.89543,2 2,2h10c1.1046,0 2,-0.8954 2,-2v-6c0,-1.10457 -0.8954,-2 -2,-2h-4.58579c-0.1326,0 -0.25978,-0.05268 -0.35355,-0.14645l-1.41421,-1.41421c-0.28131,-0.28131 -0.66284,-0.43934 -1.06066,-0.43934z"></path></g></g></g></svg>