<svg width="16" height="16" viewBox="0 0 16 16" fill="none" xmlns="http://www.w3.org/2000/svg">
<g clip-path="url(#clip0_1_852)">
<mask id="mask0_1_852" style="mask-type:alpha" maskUnits="userSpaceOnUse" x="0" y="0" width="16" height="16">
<path fill-rule="evenodd" clip-rule="evenodd" d="M16 0H0V16H6.16998C5.81659 15.5157 5.61885 14.9526 5.52207 14.3888C5.47116 14.0922 5.31554 13.8227 5.08415 13.6303C4.34501 13.0158 3.75 12.1552 3.75 11.0091C3.75 9.86309 4.34501 9.0025 5.08416 8.38797C5.31555 8.19558 5.47116 7.92604 5.52208 7.62947C5.68471 6.68208 6.13249 5.7365 7.125 5.16347C8.11751 4.59045 9.16031 4.67545 10.0621 5.0083C10.3444 5.1125 10.6556 5.1125 10.9379 5.0083C11.8397 4.67545 12.8825 4.59045 13.875 5.16347C14.8675 5.7365 15.3153 6.68209 15.4779 7.62947C15.5288 7.92605 15.6845 8.19559 15.9158 8.38797C15.9441 8.41148 15.9722 8.43534 16 8.45957V0ZM16 13.5587C15.9722 13.5829 15.9441 13.6068 15.9158 13.6303C15.6845 13.8227 15.5288 14.0922 15.4779 14.3888C15.3812 14.9526 15.1834 15.5157 14.83 16H16V13.5587ZM7.61863 16C7.62073 15.9963 7.62285 15.9925 7.625 15.9888C7.62283 15.9925 7.62064 15.9963 7.61843 16H7.61863Z" fill="#D9D9D9"/>
</mask>
<g mask="url(#mask0_1_852)">
<path d="M3 2C1.89543 2 1 2.89543 1 4V12C1 13.1046 1.89543 14 3 14H13C14.1046 14 15 13.1046 15 12V6C15 4.89543 14.1046 4 13 4H8.41421C8.28161 4 8.15443 3.94732 8.06066 3.85355L6.64645 2.43934C6.36514 2.15803 5.98361 2 5.58579 2H3Z" fill="#25A6E9" fill-opacity="0.9"/>
</g>
<path fill-rule="evenodd" clip-rule="evenodd" d="M7.66709 12.6447C7.83704 12.7076 8.01656 12.7652 8.20454 12.8167C8.13081 12.7 8.05874 12.5808 7.98853 12.4591C7.91832 12.3375 7.85108 12.2155 7.78684 12.0933C7.7375 12.2818 7.69759 12.4661 7.66709 12.6447ZM7.5926 13.4666C7.99518 13.6015 8.43379 13.7085 8.89822 13.7835C9.19536 14.1482 9.50736 14.4746 9.82549 14.7557C9.12245 15.1625 8.55964 15.2005 8.2 14.9929C7.84036 14.7852 7.59188 14.2788 7.5926 13.4666ZM10.0823 13.9009C10.2209 14.0379 10.3606 14.1646 10.5 14.2803C10.6394 14.1646 10.7791 14.0379 10.9177 13.9009C10.7797 13.9064 10.6404 13.9091 10.5 13.9091C10.3596 13.9091 10.2203 13.9064 10.0823 13.9009ZM10.4836 15.2887L10.5 15.2778L10.5164 15.2887C11.4003 15.8723 12.4002 16.1474 13.2 15.6857C13.9998 15.2239 14.2614 14.2204 14.198 13.1632L14.1968 13.1435L14.2144 13.1347C15.1618 12.661 15.9 11.9326 15.9 11.0091C15.9 10.0857 15.1618 9.35728 14.2144 8.88361L14.1968 8.87482L14.198 8.85513C14.2614 7.79787 13.9998 6.79435 13.2 6.33261C12.4002 5.87086 11.4003 6.146 10.5164 6.72959L10.5 6.74049L10.4836 6.72959C9.59968 6.14601 8.59976 5.87086 7.8 6.33261C7.00024 6.79435 6.73856 7.79787 6.80202 8.85513L6.80324 8.87482L6.78558 8.88361C5.83824 9.35728 5.1 10.0857 5.1 11.0091C5.1 11.9326 5.83824 12.661 6.78558 13.1347L6.80324 13.1435L6.80202 13.1632C6.73856 14.2204 7.00023 15.2239 7.8 15.6857C8.59976 16.1474 9.59967 15.8723 10.4836 15.2887ZM12.8 14.9929C13.1596 14.7852 13.4081 14.2788 13.4074 13.4666C13.0048 13.6015 12.5662 13.7085 12.1018 13.7835C11.8046 14.1482 11.4926 14.4746 11.1745 14.7557C11.8776 15.1625 12.4404 15.2005 12.8 14.9929ZM15.1 11.0091C15.1 11.4244 14.7857 11.8928 14.0819 12.2983C13.9975 11.8822 13.8708 11.4488 13.7036 11.0091C13.8708 10.5694 13.9975 10.1361 14.0819 9.71998C14.7857 10.1255 15.1 10.5939 15.1 11.0091ZM13.3329 12.6447C13.3024 12.4661 13.2625 12.2819 13.2132 12.0933C13.1489 12.2155 13.0817 12.3375 13.0115 12.4591C12.9413 12.5808 12.8692 12.7 12.7955 12.8167C12.9834 12.7652 13.163 12.7076 13.3329 12.6447ZM12.3187 12.0591C12.5215 11.7078 12.6959 11.3555 12.8418 11.0091C12.6959 10.6627 12.5215 10.3105 12.3187 9.95914C12.1158 9.60776 11.8979 9.28066 11.6709 8.98106C11.2979 8.93427 10.9057 8.90914 10.5 8.90914C10.0943 8.90914 9.70205 8.93427 9.32908 8.98106C9.10208 9.28066 8.88422 9.60776 8.68134 9.95914C8.47847 10.3105 8.30413 10.6627 8.15817 11.0091C8.30413 11.3555 8.47848 11.7078 8.68135 12.0591C8.88422 12.4105 9.10208 12.7376 9.32909 13.0372C9.70205 13.084 10.0943 13.1091 10.5 13.1091C10.9057 13.1091 11.2979 13.084 11.6709 13.0372C11.8979 12.7376 12.1158 12.4105 12.3187 12.0591ZM13.3329 9.37357C13.3024 9.55219 13.2625 9.73644 13.2132 9.92502C13.1489 9.80279 13.0817 9.68075 13.0115 9.55914C12.9413 9.43754 12.8692 9.31829 12.7955 9.20155C12.9834 9.25311 13.163 9.31067 13.3329 9.37357ZM13.4074 8.5517C13.0048 8.41678 12.5662 8.30976 12.1018 8.23477C11.8046 7.87006 11.4926 7.54372 11.1745 7.26254C11.8775 6.85581 12.4404 6.81779 12.8 7.02543C13.1596 7.23306 13.4081 7.73949 13.4074 8.5517ZM8.89821 8.23477C9.19536 7.87006 9.50736 7.54372 9.82549 7.26254C9.12245 6.85581 8.55964 6.81779 8.2 7.02543C7.84036 7.23306 7.59188 7.73949 7.5926 8.5517C7.99518 8.41678 8.43379 8.30975 8.89821 8.23477ZM8.20454 9.20154C8.01655 9.2531 7.83704 9.31067 7.66709 9.37356C7.6976 9.55219 7.7375 9.73644 7.78684 9.92502C7.85108 9.80278 7.91831 9.68075 7.98852 9.55914C8.05873 9.43754 8.1308 9.31829 8.20454 9.20154ZM5.9 11.0091C5.9 10.5939 6.21434 10.1255 6.91809 9.71998C7.00254 10.1361 7.12916 10.5694 7.29643 11.0091C7.12916 11.4488 7.00253 11.8822 6.91809 12.2983C6.21434 11.8928 5.9 11.4244 5.9 11.0091ZM10.9177 8.11742C10.7791 7.9804 10.6394 7.85371 10.5 7.73798C10.3606 7.85371 10.2209 7.9804 10.0823 8.11742C10.2203 8.11193 10.3596 8.10914 10.5 8.10914C10.6404 8.10914 10.7797 8.11193 10.9177 8.11742ZM10.5 12.0091C11.0523 12.0091 11.5 11.5614 11.5 11.0091C11.5 10.4569 11.0523 10.0091 10.5 10.0091C9.94771 10.0091 9.5 10.4569 9.5 11.0091C9.5 11.5614 9.94771 12.0091 10.5 12.0091Z" fill="#008AC9"/>
</g>
<defs>
<clipPath id="clip0_1_852">
<rect width="16" height="16" fill="white"/>
</clipPath>
</defs>
</svg>
