<svg version="1.1" xmlns="http://www.w3.org/2000/svg" xmlns:xlink="http://www.w3.org/1999/xlink" width="16" height="16" viewBox="0,0,16,16"><defs><clipPath id="clip-1"><path d="M0,16v-16h16v11.95451c-0.16502,-0.35866 -0.39309,-0.67266 -0.62591,-0.97709l-1.29113,-2.58225c-0.14821,-0.64768 -0.35299,-1.22713 -0.84366,-1.71781c-0.49068,-0.49068 -1.47254,-0.92736 -2.23931,-0.92736c-0.76677,0 -1.74863,0.43668 -2.23931,0.92736c-0.49068,0.49068 -0.67586,1.06607 -0.83418,1.69884l-1.28425,2.56849c-0.47877,0.58608 -0.89227,1.23615 -0.89227,2.13864c0,0.76677 0.43668,1.74863 0.92736,2.23931c0.27374,0.27374 0.70036,0.51032 1.15722,0.67736zM16,16l-1.83459,0c0.45686,-0.16704 0.88348,-0.40362 1.15722,-0.67736c0.25989,-0.25989 0.50463,-0.65757 0.67736,-1.0881z" id="mask" fill="none"></path></clipPath></defs><g fill="none" fill-rule="nonzero" stroke="none" stroke-width="1" stroke-linecap="butt" stroke-linejoin="miter" stroke-miterlimit="10" stroke-dasharray="" stroke-dashoffset="0" font-family="none" font-weight="none" font-size="none" text-anchor="none" style="mix-blend-mode: normal"><path d="M0,16v-16h16v16z" fill="none"></path><g id="icon" fill="#738295"><path d="M12.66667,8.91667c0,0.92083 -0.74583,1.66667 -1.66667,1.66667c-0.92083,0 -1.66667,-0.74583 -1.66667,-1.66667c0,-0.92083 0.74583,-1.66667 1.66667,-1.66667c0.92083,0 1.66667,0.74583 1.66667,1.66667zM8.91667,11.41667c-0.92083,0 -1.66667,0.74583 -1.66667,1.66667c0,0.92083 0.74583,1.66667 1.66667,1.66667c0.92083,0 1.66667,-0.74583 1.66667,-1.66667c0,-0.92083 -0.74583,-1.66667 -1.66667,-1.66667zM13.08333,11.41667c-0.92083,0 -1.66667,0.74583 -1.66667,1.66667c0,0.92083 0.74583,1.66667 1.66667,1.66667c0.92083,0 1.66667,-0.74583 1.66667,-1.66667c0,-0.92083 -0.74583,-1.66667 -1.66667,-1.66667z"></path></g><path d="" fill="none"></path><path d="M14.75,13.08333l-1.66667,1.66667h-4.16667l-1.66667,-1.66667l2.08333,-4.16667l1.66667,-1.66667l1.66667,1.66667l2.08333,4.16667" fill="none"></path><g clip-path="url(#clip-1)"><g fill-opacity="0.9" fill="#8b98a9"><path d="M3,2c-1.10457,0 -2,0.89543 -2,2v8c0,1.1046 0.89543,2 2,2h10c1.1046,0 2,-0.8954 2,-2v-6c0,-1.10457 -0.8954,-2 -2,-2h-4.58579c-0.1326,0 -0.25978,-0.05268 -0.35355,-0.14645l-1.41421,-1.41421c-0.28131,-0.28131 -0.66284,-0.43934 -1.06066,-0.43934z"></path></g></g></g></svg>