<svg version="1.1" xmlns="http://www.w3.org/2000/svg" xmlns:xlink="http://www.w3.org/1999/xlink" width="16" height="16" viewBox="0,0,16,16"><defs><clipPath id="clip-1"><path d="M0,16v-16h16v8.18197c-0.28955,-0.53037 -0.65375,-1.00492 -1.05232,-1.36361c-0.94524,-0.85065 -2.51882,-1.48502 -3.94768,-1.48502c-1.45512,0 -3.06175,0.71855 -4.00493,1.66174c-0.94318,0.94318 -1.66174,2.54981 -1.66174,4.00493c0,1.45512 0.71855,3.06175 1.66174,4.00493c0.37851,0.37851 0.86386,0.72084 1.40339,0.99507zM16,16h-3.28697c0.03004,-0.0258 0.05818,-0.05176 0.0842,-0.07777c0.37753,-0.37753 0.40082,-0.61581 0.54413,-1.00306l0.47905,-0.54293c0.70337,-0.2435 1.27537,-0.50675 1.83463,-1.13521c0.1211,-0.13609 0.23728,-0.29483 0.34496,-0.4694z" id="mask" fill="none"></path></clipPath></defs><g fill="none" fill-rule="nonzero" stroke="none" stroke-width="1" stroke-linecap="butt" stroke-linejoin="miter" stroke-miterlimit="10" stroke-dasharray="" stroke-dashoffset="0" font-family="none" font-weight="none" font-size="none" text-anchor="none" style="mix-blend-mode: normal"><path d="M0,16v-16h16v16z" fill="none"></path><g id="icon" fill="#008ac9"><path d="M11,6.83333c-2.29583,0 -4.16667,1.87083 -4.16667,4.16667c0,2.29583 1.87083,4.16667 4.16667,4.16667c0.5753,0 1.04167,-0.46637 1.04167,-1.04167c0,-0.25417 -0.09583,-0.5 -0.26667,-0.69583c-0.03337,-0.03822 -0.05251,-0.08679 -0.05417,-0.1375c0,-0.11667 0.09167,-0.20833 0.20833,-0.20833h0.7375c1.37917,0 2.5,-1.12083 2.5,-2.5c0,-2.06667 -1.87083,-3.75 -4.16667,-3.75zM13.29167,11.41667c-0.34583,0 -0.625,-0.27917 -0.625,-0.625c0,-0.34583 0.27917,-0.625 0.625,-0.625c0.34583,0 0.625,0.27917 0.625,0.625c0,0.34583 -0.27917,0.625 -0.625,0.625zM12.04167,9.75c-0.34583,0 -0.625,-0.27917 -0.625,-0.625c0,-0.34583 0.27917,-0.625 0.625,-0.625c0.34583,0 0.625,0.27917 0.625,0.625c0,0.34583 -0.27917,0.625 -0.625,0.625zM8.08333,10.79167c0,-0.34583 0.27917,-0.625 0.625,-0.625c0.34583,0 0.625,0.27917 0.625,0.625c0,0.34583 -0.27917,0.625 -0.625,0.625c-0.34583,0 -0.625,-0.27917 -0.625,-0.625zM10.58333,9.125c0,0.34583 -0.27917,0.625 -0.625,0.625c-0.34583,0 -0.625,-0.27917 -0.625,-0.625c0,-0.34583 0.27917,-0.625 0.625,-0.625c0.34583,0 0.625,0.27917 0.625,0.625z"></path></g><path d="" fill="none"></path><path d="M15.16667,10.58333l-3.125,3.54167l-1.04167,1.04167l-2.29167,-3.75l-1.875,-0.41667l2.5,-1.875l1.66667,-2.29167l1.04167,1.66667l3.125,2.08333" fill="none"></path><g clip-path="url(#clip-1)"><g fill-opacity="0.9" fill="#25a6e9"><path d="M3,2c-1.10457,0 -2,0.89543 -2,2v8c0,1.1046 0.89543,2 2,2h10c1.1046,0 2,-0.8954 2,-2v-6c0,-1.10457 -0.8954,-2 -2,-2h-4.58579c-0.1326,0 -0.25978,-0.05268 -0.35355,-0.14645l-1.41421,-1.41421c-0.28131,-0.28131 -0.66284,-0.43934 -1.06066,-0.43934z"></path></g></g></g></svg>