<svg version="1.1" xmlns="http://www.w3.org/2000/svg" xmlns:xlink="http://www.w3.org/1999/xlink" width="16" height="16" viewBox="0,0,16,16"><defs><clipPath id="clip-1"><path d="M0,16v-16h16v8.92083c-0.08872,-0.13376 -0.19934,-0.25394 -0.32909,-0.35486l-3.75,-2.91667c-0.54167,-0.4213 -1.30016,-0.4213 -1.84182,0l-3.75,2.91667c-0.36538,0.28418 -0.57909,0.72114 -0.57909,1.18403v2.1125c0,0.46289 0.21371,0.89984 0.57909,1.18403l3.75,2.91667c0.01626,0.01265 0.03272,0.02492 0.04936,0.03681zM16,16h-4.12845c0.01664,-0.01189 0.0331,-0.02416 0.04936,-0.03681l3.75,-2.91667c0.12975,-0.10091 0.24037,-0.22109 0.32909,-0.35486z" id="mask" fill="none"></path></clipPath></defs><g fill="none" fill-rule="nonzero" stroke="none" stroke-width="1" stroke-linecap="butt" stroke-linejoin="miter" stroke-miterlimit="10" stroke-dasharray="" stroke-dashoffset="0" font-family="none" font-weight="none" font-size="none" text-anchor="none" style="mix-blend-mode: normal"><path d="M0,16v-16h16v16z" fill="none"></path><g id="icon" fill="#17975f"><path d="M10.99583,13.725l-3.07083,-2.3875l-0.675,0.525l3.75,2.91667l3.75,-2.91667l-0.67917,-0.52917zM11,12.66667l3.06667,-2.3875l0.68333,-0.52917l-3.75,-2.91667l-3.75,2.91667l0.67917,0.52917z"></path></g><path d="" fill="none"></path><path d="M14.75,11.8625l-3.75,2.91667l-3.75,-2.91667v-2.1125l3.75,-2.91667l3.75,2.91667v2.1125" fill="none"></path><g clip-path="url(#clip-1)"><g fill-opacity="0.9" fill="#17b877"><path d="M3,2c-1.10457,0 -2,0.89543 -2,2v8c0,1.1046 0.89543,2 2,2h10c1.1046,0 2,-0.8954 2,-2v-6c0,-1.10457 -0.8954,-2 -2,-2h-4.58579c-0.1326,0 -0.25978,-0.05268 -0.35355,-0.14645l-1.41421,-1.41421c-0.28131,-0.28131 -0.66284,-0.43934 -1.06066,-0.43934z"></path></g></g></g></svg>