<svg version="1.1" xmlns="http://www.w3.org/2000/svg" xmlns:xlink="http://www.w3.org/1999/xlink" width="16" height="16" viewBox="0,0,16,16"><defs><clipPath id="clip-1"><path d="M0,16v-16h16v8.66532c-0.08199,-0.12109 -0.16934,-0.22967 -0.26083,-0.32116c-0.49063,-0.49063 -1.06584,-0.67582 -1.6985,-0.83421l-1.77758,-0.88879c-0.1677,-0.47055 -0.19995,-0.70303 -0.69058,-1.19367c-0.49063,-0.49063 -1.47246,-0.9275 -2.23917,-0.9275c-0.76671,0 -1.74854,0.43686 -2.23917,0.9275c-0.49063,0.49063 -0.9275,1.47246 -0.9275,2.23917c0,0.59111 0.18554,1.02316 0.38646,1.46559l0.58367,1.86774l-0.58291,1.86533c-0.20222,0.44511 -0.34925,0.88021 -0.38722,1.46949c0.04232,0.52596 0.22999,1.17249 0.50149,1.66518zM16,16l-3.32172,0c0.58102,-0.18593 1.11812,-0.47288 1.56681,-0.92157c0.45002,-0.45002 0.81303,-1.17013 1.01222,-1.90408c0.29339,-0.19441 0.56116,-0.42035 0.74269,-0.64786z" id="mask" fill="none"></path></clipPath></defs><g fill="none" fill-rule="none" stroke="none" stroke-width="1" stroke-linecap="butt" stroke-linejoin="miter" stroke-miterlimit="10" stroke-dasharray="" stroke-dashoffset="0" font-family="none" font-weight="none" font-size="none" text-anchor="none" style="mix-blend-mode: normal"><path d="M0,16v-16h16v16z" fill="none" fill-rule="nonzero"></path><g id="icon" fill="#738295"><path d="M11,7.66667c0,0.92047 -0.74619,1.66667 -1.66667,1.66667c-0.92047,0 -1.66667,-0.74619 -1.66667,-1.66667c0,-0.92047 0.74619,-1.66667 1.66667,-1.66667c0.92047,0 1.66667,0.74619 1.66667,1.66667zM10.16667,7.66667c0,0.46024 -0.3731,0.83333 -0.83333,0.83333c-0.46024,0 -0.83333,-0.3731 -0.83333,-0.83333c0,-0.46024 0.3731,-0.83333 0.83333,-0.83333c0.46024,0 0.83333,0.3731 0.83333,0.83333zM15.16667,10.58333c-0.0001,0.76005 -0.51415,1.42387 -1.25,1.61417v0.0525c0,1.38071 -1.11929,2.5 -2.5,2.5h-0.46917c-0.2118,0.81064 -0.99225,1.33824 -1.82343,1.23268c-0.83118,-0.10556 -1.45496,-0.8115 -1.45741,-1.64935c-0.00083,-0.83992 0.62346,-1.54921 1.45669,-1.65503c0.83322,-0.10582 1.615,0.42491 1.82415,1.23837h0.46917c0.92047,0 1.66667,-0.74619 1.66667,-1.66667v-0.0525c-0.81064,-0.2118 -1.33824,-0.99225 -1.23268,-1.82343c0.10556,-0.83118 0.8115,-1.45496 1.64935,-1.45741c0.92047,0 1.66667,0.74619 1.66667,1.66667zM13.5,11.41667c0.46024,0 0.83333,-0.3731 0.83333,-0.83333c0,-0.46024 -0.3731,-0.83333 -0.83333,-0.83333c-0.46024,0 -0.83333,0.3731 -0.83333,0.83333c0,0.46024 0.3731,0.83333 0.83333,0.83333zM9.33333,15.16667c0.46024,0 0.83333,-0.3731 0.83333,-0.83333c0,-0.46024 -0.3731,-0.83333 -0.83333,-0.83333c-0.46024,0 -0.83333,0.3731 -0.83333,0.83333c0,0.46024 0.3731,0.83333 0.83333,0.83333z" fill-rule="evenodd"></path><path d="M9.33333,11.625c0.34518,0 0.625,-0.27982 0.625,-0.625c0,-0.34518 -0.27982,-0.625 -0.625,-0.625c-0.34518,0 -0.625,0.27982 -0.625,0.625c0,0.34518 0.27982,0.625 0.625,0.625z" fill-rule="nonzero"></path></g><path d="" fill="none" fill-rule="nonzero"></path><path d="M9.33333,11.625c0.34518,0 0.625,-0.27982 0.625,-0.625c0,-0.34518 -0.27982,-0.625 -0.625,-0.625c-0.34518,0 -0.625,0.27982 -0.625,0.625c0,0.34518 0.27982,0.625 0.625,0.625z" fill="none" fill-rule="nonzero"></path><path d="M15.16667,10.58333l-1.25,1.66667l-2.5,2.5l-2.29259,1.23268l-1.45741,-1.64935l1.04167,-3.33333l-1.04167,-3.33333l1.66667,-1.66667l1.66667,1.66667l2.5,1.25l1.66667,1.66667" fill="none" fill-rule="nonzero"></path><g clip-path="url(#clip-1)" fill-rule="nonzero"><g fill-opacity="0.9" fill="#8b98a9"><path d="M3,2c-1.10457,0 -2,0.89543 -2,2v8c0,1.1046 0.89543,2 2,2h10c1.1046,0 2,-0.8954 2,-2v-6c0,-1.10457 -0.8954,-2 -2,-2h-4.58579c-0.1326,0 -0.25978,-0.05268 -0.35355,-0.14645l-1.41421,-1.41421c-0.28131,-0.28131 -0.66284,-0.43934 -1.06066,-0.43934z"></path></g></g></g></svg>