<svg width="16" height="16" viewBox="0 0 16 16" fill="none" xmlns="http://www.w3.org/2000/svg">
<g clip-path="url(#clip0_1_539)">
<mask id="mask0_1_539" style="mask-type:alpha" maskUnits="userSpaceOnUse" x="0" y="0" width="16" height="16">
<path fill-rule="evenodd" clip-rule="evenodd" d="M16 0H0V16H6.4682C5.74461 15.6259 5.25 14.8707 5.25 14V13C5.25 12.816 5.2721 12.6371 5.31379 12.4658C5.38784 12.1617 5.38784 11.8383 5.31379 11.5342C5.2721 11.3629 5.25 11.184 5.25 11V10C5.25 9.81595 5.2721 9.63706 5.31379 9.46585C5.38784 9.16169 5.38784 8.83831 5.31379 8.53415C5.2721 8.36294 5.25 8.18405 5.25 8V7C5.25 5.75736 6.25736 4.75 7.5 4.75H14.5C15.0763 4.75 15.6019 4.96664 16 5.32292V0ZM16 15.6771C15.8588 15.8034 15.7016 15.9122 15.5318 16H16V15.6771Z" fill="#D9D9D9"/>
</mask>
<g mask="url(#mask0_1_539)">
<path d="M3 2C1.89543 2 1 2.89543 1 4V12C1 13.1046 1.89543 14 3 14H13C14.1046 14 15 13.1046 15 12V6C15 4.89543 14.1046 4 13 4H8.41421C8.28161 4 8.15443 3.94732 8.06066 3.85355L6.64645 2.43934C6.36514 2.15803 5.98361 2 5.58579 2H3Z" fill="#E45D0C" fill-opacity="0.9"/>
</g>
<path fill-rule="evenodd" clip-rule="evenodd" d="M6.75 7C6.75 6.58579 7.08579 6.25 7.5 6.25H14.5C14.9142 6.25 15.25 6.58579 15.25 7V8C15.25 8.41421 14.9142 8.75 14.5 8.75H7.5C7.08579 8.75 6.75 8.41421 6.75 8V7ZM6.75 10C6.75 9.58579 7.08579 9.25 7.5 9.25H14.5C14.9142 9.25 15.25 9.58579 15.25 10V11C15.25 11.4142 14.9142 11.75 14.5 11.75H7.5C7.08579 11.75 6.75 11.4142 6.75 11V10ZM6.75 13C6.75 12.5858 7.08579 12.25 7.5 12.25H14.5C14.9142 12.25 15.25 12.5858 15.25 13V14C15.25 14.4142 14.9142 14.75 14.5 14.75H7.5C7.08579 14.75 6.75 14.4142 6.75 14V13ZM8 8C8.27614 8 8.5 7.77614 8.5 7.5C8.5 7.22386 8.27614 7 8 7C7.72386 7 7.5 7.22386 7.5 7.5C7.5 7.77614 7.72386 8 8 8ZM8.5 10.5C8.5 10.7761 8.27614 11 8 11C7.72386 11 7.5 10.7761 7.5 10.5C7.5 10.2239 7.72386 10 8 10C8.27614 10 8.5 10.2239 8.5 10.5ZM8 14C8.27614 14 8.5 13.7761 8.5 13.5C8.5 13.2239 8.27614 13 8 13C7.72386 13 7.5 13.2239 7.5 13.5C7.5 13.7761 7.72386 14 8 14Z" fill="#FFA268"/>
</g>
<defs>
<clipPath id="clip0_1_539">
<rect width="16" height="16" fill="white"/>
</clipPath>
</defs>
</svg>
