<svg version="1.1" xmlns="http://www.w3.org/2000/svg" xmlns:xlink="http://www.w3.org/1999/xlink" width="16" height="16" viewBox="0,0,16,16"><defs><clipPath id="clip-1"><path d="M0,16v-16h16v16h-1.25418c0.41889,-0.27786 0.67084,-0.74715 0.67084,-1.25v-6.66667c-0.06606,-0.53694 -0.34501,-1.31008 -0.68413,-1.6492c-0.33913,-0.33913 -1.11226,-0.61807 -1.6492,-0.68413h-4.16667c-0.53822,0.06664 -1.31257,0.34725 -1.65078,0.68781c-0.33778,0.34013 -0.6136,1.11144 -0.67838,1.64553l-0.00417,6.66573c-0.00031,0.50317 0.25167,0.97289 0.67084,1.25094zM11,15.13195l2.02545,0.86805h-4.05089z" id="mask" fill="none"></path></clipPath></defs><g fill="none" fill-rule="nonzero" stroke="none" stroke-width="1" stroke-linecap="butt" stroke-linejoin="miter" stroke-miterlimit="10" stroke-dasharray="" stroke-dashoffset="0" font-family="none" font-weight="none" font-size="none" text-anchor="none" style="mix-blend-mode: normal"><path d="M0,16v-16h16v16z" fill="none"></path><g id="icon" fill="#008ac9"><path d="M13.08333,7.25h-4.16667c-0.45833,0 -0.82917,0.375 -0.82917,0.83333l-0.00417,6.66667l2.91667,-1.25l2.91667,1.25v-6.66667c0,-0.45833 -0.375,-0.83333 -0.83333,-0.83333z"></path></g><path d="" fill="none"></path><path d="M13.08333,7.25h-4.16667c-0.45833,0 -0.82917,0.375 -0.82917,0.83333l-0.00417,6.66667l2.91667,-1.25l2.91667,1.25v-6.66667c0,-0.45833 -0.375,-0.83333 -0.83333,-0.83333z" fill="none"></path><path d="M13.91667,14.75l-2.91667,-1.25l-2.91667,1.25l0.00417,-6.66667l0.82917,-0.83333h4.16667l0.83333,0.83333v6.66667" fill="none"></path><g clip-path="url(#clip-1)"><g fill-opacity="0.9" fill="#25a6e9"><path d="M3,2c-1.10457,0 -2,0.89543 -2,2v8c0,1.1046 0.89543,2 2,2h10c1.1046,0 2,-0.8954 2,-2v-6c0,-1.10457 -0.8954,-2 -2,-2h-4.58579c-0.1326,0 -0.25978,-0.05268 -0.35355,-0.14645l-1.41421,-1.41421c-0.28131,-0.28131 -0.66284,-0.43934 -1.06066,-0.43934z"></path></g></g></g></svg>