<svg version="1.1" xmlns="http://www.w3.org/2000/svg" xmlns:xlink="http://www.w3.org/1999/xlink" width="16" height="16" viewBox="0,0,16,16"><defs><clipPath id="clip-1"><path d="M0,16v-16h16v16h-0.76663c0.13642,-0.33283 0.23265,-0.69772 0.26663,-1v-8c-0.06547,-0.58261 -0.36224,-1.39778 -0.73223,-1.76777c-0.36999,-0.36999 -1.18515,-0.66676 -1.76777,-0.73223h-4c-0.58261,0.06547 -1.39778,0.36224 -1.76777,0.73223c-0.36999,0.36999 -0.66676,1.18515 -0.73223,1.76777v8c0.03397,0.30228 0.13021,0.66717 0.26663,1z" id="mask" fill="none"></path></clipPath></defs><g fill="none" fill-rule="none" stroke="none" stroke-width="1" stroke-linecap="butt" stroke-linejoin="miter" stroke-miterlimit="10" stroke-dasharray="" stroke-dashoffset="0" font-family="none" font-weight="none" font-size="none" text-anchor="none" style="mix-blend-mode: normal"><path d="M0,16v-16h16v16z" fill="none" fill-rule="nonzero"></path><g id="icon" fill="#8964e8" fill-rule="evenodd"><path d="M9,6c-0.55228,0 -1,0.44772 -1,1v8c0,0.55228 0.44772,1 1,1h4c0.55228,0 1,-0.44772 1,-1v-8c0,-0.55228 -0.44772,-1 -1,-1zM11,15c0.55228,0 1,-0.44772 1,-1c0,-0.55228 -0.44772,-1 -1,-1c-0.55228,0 -1,0.44772 -1,1c0,0.55228 0.44772,1 1,1z"></path></g><path d="" fill="none" fill-rule="nonzero"></path><path d="M14,15l-1,1h-4l-1,-1l3,-2l-3,-6l1,-1h4l1,1l-2,7l2,1" fill="none" fill-rule="nonzero"></path><g clip-path="url(#clip-1)" fill-rule="nonzero"><g fill-opacity="0.9" fill="#a87ffb"><path d="M3,2c-1.10457,0 -2,0.89543 -2,2v8c0,1.1046 0.89543,2 2,2h10c1.1046,0 2,-0.8954 2,-2v-6c0,-1.10457 -0.8954,-2 -2,-2h-4.58579c-0.1326,0 -0.25978,-0.05268 -0.35355,-0.14645l-1.41421,-1.41421c-0.28131,-0.28131 -0.66284,-0.43934 -1.06066,-0.43934z"></path></g></g></g></svg>