<svg version="1.1" xmlns="http://www.w3.org/2000/svg" xmlns:xlink="http://www.w3.org/1999/xlink" width="16" height="16" viewBox="0,0,16,16"><defs><clipPath id="clip-1"><path d="M0,16v-16h16v8.67067c-0.02614,-0.02522 -0.05328,-0.04958 -0.08139,-0.07301l-2.5,-2.08333c-0.26957,-0.22464 -0.60937,-0.34767 -0.96028,-0.34767h-5.41667c-0.82843,0 -1.5,0.67157 -1.5,1.5v1.25c0,0.56816 0.321,1.08755 0.82918,1.34164l1.25415,0.62708v3.03128c0,0.82843 0.67157,1.5 1.5,1.5h4.58333c0.60004,0 1.14235,-0.3576 1.37872,-0.90912l0.91295,-2.13021v3.62267z" id="mask" fill="none"></path></clipPath></defs><g fill="none" fill-rule="nonzero" stroke="none" stroke-width="1" stroke-linecap="butt" stroke-linejoin="miter" stroke-miterlimit="10" stroke-dasharray="" stroke-dashoffset="0" font-family="none" font-weight="none" font-size="none" text-anchor="none" style="mix-blend-mode: normal"><path d="M0,16v-16h16v16z" fill="none"></path><g id="icon" fill="#e45d0c"><path d="M7.04167,7.66667v1.25h2.08333v5h1.25v-5h2.08333v-1.25zM14.95833,9.75h-3.75v1.25h1.25v2.91667h1.25v-2.91667h1.25z"></path></g><path d="" fill="none"></path><path d="M14.95833,11l-1.25,2.91667h-4.58333l2.08333,-2.91667l-4.16667,-2.08333v-1.25l3.33333,1.25l2.08333,-1.25l2.5,2.08333v1.25" fill="none"></path><g clip-path="url(#clip-1)"><g fill-opacity="0.9" fill="#ff7d1d"><path d="M3,2c-1.10457,0 -2,0.89543 -2,2v8c0,1.1046 0.89543,2 2,2h10c1.1046,0 2,-0.8954 2,-2v-6c0,-1.10457 -0.8954,-2 -2,-2h-4.58579c-0.1326,0 -0.25978,-0.05268 -0.35355,-0.14645l-1.41421,-1.41421c-0.28131,-0.28131 -0.66284,-0.43934 -1.06066,-0.43934z"></path></g></g></g></svg>