<svg version="1.1" xmlns="http://www.w3.org/2000/svg" xmlns:xlink="http://www.w3.org/1999/xlink" width="16" height="16" viewBox="0,0,16,16"><defs><clipPath id="clip-1"><path d="M0,16v-16h16v9.68168c-0.22655,-0.28658 -0.2732,-0.24423 -0.45081,-0.36524l-0.72117,-0.92722c-0.07828,-0.23 -0.0584,-0.29367 -0.28459,-0.5803c-0.22805,-0.28899 -0.27449,-0.24611 -0.45255,-0.36743l-0.75853,-0.97522c-0.11157,-0.29101 -0.11102,-0.41677 -0.41315,-0.71889c-0.30213,-0.30212 -1.02353,-0.55691 -1.50258,-0.62239h-3.33333c-0.47906,0.06548 -1.20047,0.32027 -1.5026,0.6224c-0.30213,0.30213 -0.6224,1.02354 -0.6224,1.5026c0,0.47906 0.32027,1.20047 0.6224,1.5026c0.30213,0.30213 0.28936,0.1962 0.47626,0.28703l0.55534,0.83295c0.08758,0.2354 0.11424,0.37745 0.2613,0.5693l-0.35834,1.7917l-0.62027,0.79747c-0.19618,0.12635 -0.2521,0.11391 -0.48014,0.4029c-0.22619,0.28663 -0.45655,0.9079 -0.45655,1.31605c0,0.37389 0.19509,0.89541 0.42438,1.25zM16,16l-2.87222,0c0.08453,-0.13852 0.09256,-0.24329 0.1665,-0.41734l2.22735,-2.86379c0.19567,-0.12603 0.25179,-0.11397 0.47837,-0.40069z" id="mask" fill="none"></path></clipPath></defs><g fill="none" fill-rule="nonzero" stroke="none" stroke-width="1" stroke-linecap="butt" stroke-linejoin="miter" stroke-miterlimit="10" stroke-dasharray="" stroke-dashoffset="0" font-family="none" font-weight="none" font-size="none" text-anchor="none" style="mix-blend-mode: normal"><path d="M0,16v-16h16v16z" fill="none"></path><g id="icon"><path d="M11.41661,14.125h-3.33333c-0.34518,0 -0.625,0.27984 -0.625,0.625c0,0.34516 0.27982,0.625 0.625,0.625h3.33333c0.34516,0 0.625,-0.27984 0.625,-0.625c0,-0.34516 -0.27984,-0.625 -0.625,-0.625z" fill="#8964e8"></path><path d="M12.66672,12.24995h-0.625c-0.34516,0 -0.625,0.27984 -0.625,0.625c0,0.34516 0.27984,0.625 0.625,0.625h0.625c0.34516,0 0.625,-0.27984 0.625,-0.625c0,-0.34516 -0.27984,-0.625 -0.625,-0.625z" fill="#17b877"></path><path d="M10.16667,12.25h-0.625c-0.34518,0 -0.625,0.27984 -0.625,0.625c0,0.34516 0.27982,0.625 0.625,0.625h0.625c0.34518,0 0.625,-0.27984 0.625,-0.625c0,-0.34516 -0.27982,-0.625 -0.625,-0.625z" fill="#17b877"></path><path d="M12.45833,10.375h-1.45833c-0.34518,0 -0.625,0.27982 -0.625,0.625c0,0.34516 0.27982,0.625 0.625,0.625h1.45833c0.34516,0 0.625,-0.27984 0.625,-0.625c0,-0.34518 -0.27984,-0.625 -0.625,-0.625z" fill="#ffa23e"></path><path d="M14.95828,10.99992c0,-0.34518 -0.27984,-0.625 -0.625,-0.625c-0.34516,0 -0.625,0.27982 -0.625,0.625c0,0.34518 0.27984,0.62503 0.625,0.62503c0.34516,0 0.625,-0.27984 0.625,-0.62503z" fill="#ffa23e"></path><path d="M12.875,8.5h-3.33333c-0.34518,0 -0.625,0.27982 -0.625,0.625c0,0.34518 0.27982,0.625 0.625,0.625h3.33333c0.34516,0 0.625,-0.27982 0.625,-0.625c0,-0.34518 -0.27984,-0.625 -0.625,-0.625z" fill="#25a6e9"></path><path d="M11.41661,6.625h-1.45833c-0.34518,0 -0.625,0.27982 -0.625,0.625c0,0.34518 0.27982,0.625 0.625,0.625h1.45833c0.34516,0 0.625,-0.27982 0.625,-0.625c0,-0.34518 -0.27984,-0.625 -0.625,-0.625z" fill="#8964e8"></path><path d="M8.70828,7.25c0,-0.34518 -0.27982,-0.625 -0.625,-0.625c-0.34518,0 -0.625,0.27982 -0.625,0.625c0,0.34518 0.27982,0.625 0.625,0.625c0.34518,0 0.625,-0.27982 0.625,-0.625z" fill="#8964e8"></path></g><path d="" fill="none"></path><path d="M11.41661,14.125h-3.33333c-0.34518,0 -0.625,0.27984 -0.625,0.625c0,0.34516 0.27982,0.625 0.625,0.625h3.33333c0.34516,0 0.625,-0.27984 0.625,-0.625c0,-0.34516 -0.27984,-0.625 -0.625,-0.625z" fill="none"></path><path d="M12.66672,12.24995h-0.625c-0.34516,0 -0.625,0.27984 -0.625,0.625c0,0.34516 0.27984,0.625 0.625,0.625h0.625c0.34516,0 0.625,-0.27984 0.625,-0.625c0,-0.34516 -0.27984,-0.625 -0.625,-0.625z" fill="none"></path><path d="M10.16667,12.25h-0.625c-0.34518,0 -0.625,0.27984 -0.625,0.625c0,0.34516 0.27982,0.625 0.625,0.625h0.625c0.34518,0 0.625,-0.27984 0.625,-0.625c0,-0.34516 -0.27982,-0.625 -0.625,-0.625z" fill="none"></path><path d="M12.45833,10.375h-1.45833c-0.34518,0 -0.625,0.27982 -0.625,0.625c0,0.34516 0.27982,0.625 0.625,0.625h1.45833c0.34516,0 0.625,-0.27984 0.625,-0.625c0,-0.34518 -0.27984,-0.625 -0.625,-0.625z" fill="none"></path><path d="M14.95828,10.99992c0,-0.34518 -0.27984,-0.625 -0.625,-0.625c-0.34516,0 -0.625,0.27982 -0.625,0.625c0,0.34518 0.27984,0.62503 0.625,0.62503c0.34516,0 0.625,-0.27984 0.625,-0.62503z" fill="none"></path><path d="M12.875,8.5h-3.33333c-0.34518,0 -0.625,0.27982 -0.625,0.625c0,0.34518 0.27982,0.625 0.625,0.625h3.33333c0.34516,0 0.625,-0.27982 0.625,-0.625c0,-0.34518 -0.27984,-0.625 -0.625,-0.625z" fill="none"></path><path d="M11.41661,6.625h-1.45833c-0.34518,0 -0.625,0.27982 -0.625,0.625c0,0.34518 0.27982,0.625 0.625,0.625h1.45833c0.34516,0 0.625,-0.27982 0.625,-0.625c0,-0.34518 -0.27984,-0.625 -0.625,-0.625z" fill="none"></path><path d="M8.70828,7.25c0,-0.34518 -0.27982,-0.625 -0.625,-0.625c-0.34518,0 -0.625,0.27982 -0.625,0.625c0,0.34518 0.27982,0.625 0.625,0.625c0.34518,0 0.625,-0.27982 0.625,-0.625z" fill="none"></path><path d="M14.95828,10.99992l-2.91667,3.75008l-0.625,0.625h-3.33333l-0.625,-0.625l1.45839,-1.875l0.625,-3.125l-0.625,-0.625l-0.83339,-1.25l-0.625,-0.625l0.625,-0.625h3.33333l0.625,0.625l1.45839,1.875l1.45828,1.87492" fill="none"></path><g clip-path="url(#clip-1)"><g fill-opacity="0.9" fill="#a87ffb"><path d="M3,2c-1.10457,0 -2,0.89543 -2,2v8c0,1.1046 0.89543,2 2,2h10c1.1046,0 2,-0.8954 2,-2v-6c0,-1.10457 -0.8954,-2 -2,-2h-4.58579c-0.1326,0 -0.25978,-0.05268 -0.35355,-0.14645l-1.41421,-1.41421c-0.28131,-0.28131 -0.66284,-0.43934 -1.06066,-0.43934z"></path></g></g></g></svg>