<svg version="1.1" xmlns="http://www.w3.org/2000/svg" xmlns:xlink="http://www.w3.org/1999/xlink" width="16" height="16" viewBox="0,0,16,16"><defs><clipPath id="clip-1"><path d="M0,16v-16h16v16zM10.6125,15.83333c0,0 0,0 0,0h1.17917c0.20931,0 0.4086,-0.04287 0.58958,-0.12031c0.18098,0.07744 0.38028,0.12031 0.58958,0.12031h1.17917c0.82843,0 1.5,-0.67157 1.5,-1.5c-0.06553,-2.09619 -0.97645,-4.28214 -2.33882,-5.64451c-1.36237,-1.36237 -3.54833,-2.27329 -5.64451,-2.33882c-0.82843,0 -1.5,0.67157 -1.5,1.5v1.17917c0,0.20931 0.04287,0.4086 0.12031,0.58958c-0.07744,0.18098 -0.12031,0.38028 -0.12031,0.58958l0,3.21667c0.06547,0.5573 0.35198,1.34955 0.70538,1.70295c0.3534,0.3534 1.14565,0.70538 1.70295,0.70538c0,0 2.0375,0 2.0375,0z" id="mask" fill="none"></path></clipPath></defs><g fill="none" fill-rule="nonzero" stroke="none" stroke-width="1" stroke-linecap="butt" stroke-linejoin="miter" stroke-miterlimit="10" stroke-dasharray="" stroke-dashoffset="0" font-family="none" font-weight="none" font-size="none" text-anchor="none" style="mix-blend-mode: normal"><path d="M0,16v-16h16v16z" fill="none"></path><g id="icon" fill="#008ac9"><circle cx="20.58" cy="32.22" transform="scale(0.41667,0.41667)" r="2.18"></circle><path d="M7.66667,7.85v1.17917c2.92917,0 5.30417,2.375 5.30417,5.30417h1.17917c0,-3.57917 -2.90417,-6.48333 -6.48333,-6.48333zM7.66667,10.20833v1.17917c1.625,0 2.94583,1.32083 2.94583,2.94583h1.17917c0,-2.27917 -1.84583,-4.125 -4.125,-4.125z"></path></g><path d="" fill="none"></path><path d="M7.66667,13.425c0,-0.50166 0.40667,-0.90833 0.90833,-0.90833c0.50166,0 0.90833,0.40667 0.90833,0.90833c0,0.50166 -0.40667,0.90833 -0.90833,0.90833c-0.50166,0 -0.90833,-0.40667 -0.90833,-0.90833z" fill="none"></path><path d="M14.15,14.33333h-2.35833h-3.21667l-0.90833,-0.90833l0,-2.0375v-3.5375v2.35833l1.81667,3.21667l1.12917,0.90833h3.5375" fill="none"></path><g clip-path="url(#clip-1)"><g fill-opacity="0.9" fill="#25a6e9"><path d="M3,2c-1.10457,0 -2,0.89543 -2,2v8c0,1.1046 0.89543,2 2,2h10c1.1046,0 2,-0.8954 2,-2v-6c0,-1.10457 -0.8954,-2 -2,-2h-4.58579c-0.1326,0 -0.25978,-0.05268 -0.35355,-0.14645l-1.41421,-1.41421c-0.28131,-0.28131 -0.66284,-0.43934 -1.06066,-0.43934z"></path></g></g></g></svg>