<svg version="1.1" xmlns="http://www.w3.org/2000/svg" xmlns:xlink="http://www.w3.org/1999/xlink" width="16" height="16" viewBox="0,0,16,16"><defs><clipPath id="clip-1"><path d="M0,16v-16h16v16zM12.67278,11.54472c0.01694,-0.03388 0.01328,-0.07442 -0.00944,-0.10472l-3.75,-5c-0.01889,-0.02518 -0.04852,-0.04 -0.08,-0.04c-0.03148,0 -0.06111,0.01482 -0.08,0.04l-1.5625,2.08333c-0.02667,0.03556 -0.02667,0.08444 0,0.12l1.1275,1.50333l-0.50672,0.38004c-0.70856,-0.94355 -1.81492,-2.42001 -1.81492,-2.42001c-0.01888,-0.02519 -0.04852,-0.04003 -0.08,-0.04003c-0.03148,-0.00001 -0.06113,0.01481 -0.08002,0.04l-2.5,3.33333c-0.02273,0.0303 -0.02638,0.07084 -0.00944,0.10472c0.01694,0.03388 0.05157,0.05528 0.08944,0.05528h9.16667c0.03788,0 0.0725,-0.0214 0.08944,-0.05528z" id="mask" fill="none"></path></clipPath></defs><g fill="none" fill-rule="nonzero" stroke="none" stroke-width="1" stroke-linecap="butt" stroke-linejoin="miter" stroke-miterlimit="10" stroke-dasharray="" stroke-dashoffset="0" font-family="none" font-weight="none" font-size="none" text-anchor="none" style="mix-blend-mode: normal"><path d="M0,16v-16h16v16z" fill="none"></path><path d="" fill="none"></path><path d="M8.83333,6.5l-1.5625,2.08333l1.1875,1.58333l-0.66667,0.5c-0.70417,-0.9375 -1.875,-2.5 -1.875,-2.5l-2.5,3.33333h9.16667z" fill="none"></path><g clip-path="url(#clip-1)"><g fill="#25a6e9"><path d="M2,3c0,-1.10457 0.89543,-2 2,-2h5.17157c0.53044,0 1.03913,0.21071 1.41423,0.58579l2.8284,2.82842c0.3751,0.37508 0.5858,0.88378 0.5858,1.41422v7.17157c0,1.1046 -0.8954,2 -2,2h-8c-1.10457,0 -2,-0.8954 -2,-2z"></path></g></g></g></svg>