<svg version="1.1" xmlns="http://www.w3.org/2000/svg" xmlns:xlink="http://www.w3.org/1999/xlink" width="16" height="16" viewBox="0,0,16,16"><defs><clipPath id="clip-1"><path d="M0,16v-16h16v6.42055c-0.26873,-0.40417 -0.72826,-0.67055 -1.25,-0.67055h-7.5c-0.82843,0 -1.5,0.67157 -1.5,1.5v7.5c0,0.52174 0.26638,0.98127 0.67055,1.25zM16,16h-0.42055c0.1666,-0.11077 0.30978,-0.25395 0.42055,-0.42055z" id="mask" fill="none"></path></clipPath></defs><g fill="none" fill-rule="nonzero" stroke="none" stroke-width="1" stroke-linecap="butt" stroke-linejoin="miter" stroke-miterlimit="10" stroke-dasharray="" stroke-dashoffset="0" font-family="none" font-weight="none" font-size="none" text-anchor="none" style="mix-blend-mode: normal"><path d="M0,16v-16h16v16z" fill="none"></path><g id="icon" fill="#ffca28"><path d="M7.25,7.25h7.5v7.5h-7.5v-7.5M9.22083,13.51667c0.16667,0.35417 0.49583,0.64583 1.05833,0.64583c0.625,0 1.05417,-0.33333 1.05417,-1.0625v-2.40833h-0.70833v2.39167c0,0.35833 -0.14583,0.45 -0.375,0.45c-0.24167,0 -0.34167,-0.16667 -0.45417,-0.3625l-0.575,0.34583M11.7125,13.44167c0.20833,0.40833 0.62917,0.72083 1.2875,0.72083c0.66667,0 1.16667,-0.34583 1.16667,-0.98333c0,-0.5875 -0.3375,-0.85 -0.9375,-1.10833l-0.175,-0.075c-0.30417,-0.12917 -0.43333,-0.21667 -0.43333,-0.425c0,-0.17083 0.12917,-0.30417 0.3375,-0.30417c0.2,0 0.33333,0.0875 0.45417,0.30417l0.54583,-0.3625c-0.22917,-0.4 -0.55417,-0.55417 -1,-0.55417c-0.62917,0 -1.03333,0.4 -1.03333,0.92917c0,0.575 0.3375,0.84583 0.84583,1.0625l0.175,0.075c0.325,0.14167 0.51667,0.22917 0.51667,0.47083c0,0.2 -0.1875,0.34583 -0.47917,0.34583c-0.34583,0 -0.54583,-0.17917 -0.69583,-0.42917z"></path></g><path d="" fill="none"></path><path d="M14.75,14.75l-4.47083,-0.5875l-3.02917,0.5875l1.97083,-1.23333l1.40417,-2.825l-3.375,-3.44167l4.08333,3.44167l3.41667,-3.44167l-0.79167,3.95833l0.79167,3.54167" fill="none"></path><g clip-path="url(#clip-1)"><g fill="#8b98a9"><path d="M2,3c0,-1.10457 0.89543,-2 2,-2h5.17157c0.53044,0 1.03913,0.21071 1.41423,0.58579l2.8284,2.82842c0.3751,0.37508 0.5858,0.88378 0.5858,1.41422v7.17157c0,1.1046 -0.8954,2 -2,2h-8c-1.10457,0 -2,-0.8954 -2,-2z"></path></g></g></g></svg>