<svg width="24" height="24" viewBox="0 0 24 24" fill="none" xmlns="http://www.w3.org/2000/svg">
<path fill-rule="evenodd" clip-rule="evenodd" d="M8.75795 2.84909C7.42429 2.49173 6.05344 3.28319 5.69609 4.61686L2.84908 15.242C2.49173 16.5757 3.28318 17.9465 4.61685 18.3039L15.242 21.1509C16.5757 21.5083 17.9465 20.7168 18.3039 19.3831L21.1509 8.75796C21.5083 7.4243 20.7168 6.05345 19.3831 5.6961L8.75795 2.84909ZM15.0018 6.59267C14.7351 6.5212 14.4609 6.67949 14.3894 6.94623L13.3541 10.8099C13.2827 11.0767 13.441 11.3508 13.7077 11.4223L17.5714 12.4576C17.8381 12.5291 18.1123 12.3708 18.1838 12.104L19.2191 8.24032C19.2905 7.97359 19.1322 7.69942 18.8655 7.62795L15.0018 6.59267Z" fill="#42A5F5"/>
</svg>
