<svg width="192" height="192" viewBox="0 0 192 192" fill="none"
  xmlns="http://www.w3.org/2000/svg">
  <path d="M103.999 156H39.999C33.3716 156 27.999 161.373 27.999 168C27.999 174.627 33.3716 180 39.999 180H103.999C110.626 180 115.999 174.627 115.999 168C115.999 161.373 110.626 156 103.999 156Z" fill="#8964E8"/>
  <path d="M128.001 119.999H116.001C109.374 119.999 104.001 125.372 104.001 131.999C104.001 138.626 109.374 143.999 116.001 143.999H128.001C134.628 143.999 140.001 138.626 140.001 131.999C140.001 125.372 134.628 119.999 128.001 119.999Z" fill="#17B877"/>
  <path d="M80 120H68C61.3726 120 56 125.373 56 132C56 138.627 61.3726 144 68 144H80C86.6274 144 92 138.627 92 132C92 125.373 86.6274 120 80 120Z" fill="#17B877"/>
  <path d="M124 84H96C89.3726 84 84 89.3726 84 96C84 102.627 89.3726 108 96 108H124C130.627 108 136 102.627 136 96C136 89.3726 130.627 84 124 84Z" fill="#FFA23E"/>
  <path d="M171.999 95.9985C171.999 89.3711 166.626 83.9985 159.999 83.9985C153.372 83.9985 147.999 89.3711 147.999 95.9985C147.999 102.626 153.372 107.999 159.999 107.999C166.626 107.999 171.999 102.626 171.999 95.9985Z" fill="#FFA23E"/>
  <path d="M132 48H68C61.3726 48 56 53.3726 56 60C56 66.6274 61.3726 72 68 72H132C138.627 72 144 66.6274 144 60C144 53.3726 138.627 48 132 48Z" fill="#25A6E9"/>
  <path d="M103.999 12H75.999C69.3716 12 63.999 17.3726 63.999 24C63.999 30.6274 69.3716 36 75.999 36H103.999C110.626 36 115.999 30.6274 115.999 24C115.999 17.3726 110.626 12 103.999 12Z" fill="#8964E8"/>
  <path d="M51.999 24C51.999 17.3726 46.6264 12 39.999 12C33.3716 12 27.999 17.3726 27.999 24C27.999 30.6274 33.3716 36 39.999 36C46.6264 36 51.999 30.6274 51.999 24Z" fill="#8964E8"/>
</svg>
