<svg version="1.1" xmlns="http://www.w3.org/2000/svg" xmlns:xlink="http://www.w3.org/1999/xlink" width="16" height="16" viewBox="0,0,16,16"><defs><clipPath id="clip-1"><path d="M0,16v-16h16v16zM7.02245,7.88467c-0.06521,0.25604 -0.12622,0.47972 -0.18633,0.70018c-0.02393,0.08776 -0.04633,0.16987 -0.06647,0.24505c-0.02013,0.07517 -0.04181,0.1575 -0.06497,0.24547c-0.05816,0.22097 -0.11717,0.44516 -0.18871,0.69948c-0.53487,0.16264 -1.09725,0.35711 -1.60112,0.60518c-0.48446,0.23939 -0.96403,0.56499 -1.19438,0.97998c-0.11865,0.22499 -0.16889,0.498 -0.11041,0.77155c0.06295,0.26116 0.22364,0.51633 0.44927,0.74351c0.22761,0.22647 0.48328,0.38775 0.74503,0.45084c0.27355,0.05849 0.54656,0.00824 0.77155,-0.11041c0.41499,-0.23035 0.74057,-0.70991 0.97998,-1.19436c0.24808,-0.5039 0.4399,-1.05185 0.60519,-1.60119c0.25435,-0.07155 0.47858,-0.13056 0.69956,-0.18873l-0.0017,0.00043c0.08786,-0.02313 0.17207,-0.04528 0.24715,-0.06539c0.07518,-0.02015 0.15731,-0.04254 0.24508,-0.06648c0.22044,-0.06011 0.42392,-0.11662 0.70009,-0.18631c0.4083,0.3819 0.85793,0.77174 1.32473,1.08408c0.44955,0.29985 0.9713,0.55238 1.44587,0.54437c0.25418,-0.00974 0.51573,-0.10274 0.72338,-0.29016c0.19492,-0.18531 0.33565,-0.45244 0.41955,-0.76192c0.08208,-0.30996 0.09376,-0.61168 0.01762,-0.86962c-0.08612,-0.26615 -0.26614,-0.47745 -0.48139,-0.61298c-0.40699,-0.24422 -0.9851,-0.2864 -1.52435,-0.2515c-0.56042,0.0371 -1.13089,0.14496 -1.68929,0.27648c-0.18911,-0.18447 -0.3523,-0.34912 -0.51315,-0.5114c-0.06404,-0.0646 -0.12397,-0.12506 -0.179,-0.18009c-0.055,-0.055 -0.11542,-0.1149 -0.17999,-0.1789l-0.0036,-0.0034c-0.16229,-0.16087 -0.3095,-0.30556 -0.50797,-0.50992c0.12658,-0.54452 0.23937,-1.12881 0.27647,-1.68921c0.0349,-0.53926 -0.00728,-1.11737 -0.2515,-1.52435c-0.13553,-0.21525 -0.34683,-0.39526 -0.61298,-0.48139c-0.25822,-0.07623 -0.56029,-0.06443 -0.87064,0.01789c-0.309,0.08392 -0.57574,0.22459 -0.76082,0.41928c-0.18742,0.20766 -0.28041,0.46921 -0.29015,0.72339c-0.00801,0.47457 0.24451,0.99632 0.54437,1.44587c0.31233,0.46676 0.69093,0.90685 1.08402,1.32466zM7.67389,8.55342c0.10943,0.10987 0.08895,0.08842 0.18062,0.17918l0.00052,0.00052c0.06383,0.06319 0.12236,0.12115 0.17455,0.17334c0.05221,0.0522 0.11023,0.11081 0.17349,0.1747c0.09074,0.09164 0.11594,0.11709 0.17947,0.1809c-0.14982,0.03982 -0.12257,0.03324 -0.24696,0.06723l0.00104,-0.00029c-0.08672,0.0237 -0.16625,0.04544 -0.23757,0.06454c-0.07126,0.0191 -0.153,0.04059 -0.23989,0.06341l0.00187,-0.00051c-0.12477,0.03276 -0.15944,0.04187 -0.2465,0.065c0.04044,-0.14967 0.03222,-0.12168 0.06497,-0.24642c0.02285,-0.08698 0.04379,-0.16672 0.0629,-0.23806c0.01912,-0.07133 0.04085,-0.15086 0.06455,-0.2376c0.03401,-0.12442 0.04346,-0.159 0.06695,-0.24595zM6.60363,6.11559c-0.28279,-0.4215 -0.42096,-0.74853 -0.40991,-0.97808c-0.00023,-0.09433 0.01982,-0.14628 0.07619,-0.20182c0.0614,-0.06834 0.16713,-0.13655 0.38365,-0.19187c0.21482,-0.06017 0.34011,-0.05391 0.42735,-0.02545c0.07659,0.01991 0.11993,0.05488 0.1669,0.13669c0.12435,0.19327 0.1682,0.54557 0.13405,1.05198c-0.0251,0.38688 -0.07399,0.67574 -0.14228,1.02553c-0.23402,-0.26878 -0.42079,-0.49448 -0.63596,-0.81698zM12.16432,10.37921c-0.04958,0.15293 -0.09574,0.22555 -0.16401,0.28688c-0.05555,0.05637 -0.1075,0.07643 -0.20183,0.0762c-0.22955,0.01105 -0.55657,-0.12712 -0.97806,-0.4099c-0.32251,-0.21518 -0.42785,-0.30759 -0.64019,-0.48507zM10.23202,9.65404c0.27263,-0.04752 0.41005,-0.07488 0.79695,-0.09998c0.50642,-0.03416 0.85872,0.0097 1.05198,0.13405c0.08181,0.04697 0.11677,0.09031 0.13669,0.1669c0.02846,0.08725 0.03212,0.17322 -0.0014,0.33045zM5.26872,11.09752c0.34758,-0.1717 0.62219,-0.27379 0.95925,-0.38954c-0.11576,0.33708 -0.21786,0.61171 -0.38957,0.95932c-0.22362,0.45564 -0.43776,0.73882 -0.64207,0.84402c-0.08158,0.04736 -0.13659,0.05597 -0.21287,0.03492c-0.08978,-0.01898 -0.20158,-0.07636 -0.35754,-0.23588c-0.15985,-0.15617 -0.21715,-0.26798 -0.23615,-0.35786c-0.02104,-0.07629 -0.01243,-0.13132 0.03493,-0.21289c0.1052,-0.20432 0.38837,-0.41845 0.84403,-0.64208z" id="mask" fill="none"></path></clipPath></defs><g fill="none" fill-rule="nonzero" stroke="none" stroke-width="1" stroke-linecap="butt" stroke-linejoin="miter" stroke-miterlimit="10" stroke-dasharray="" stroke-dashoffset="0" font-family="none" font-weight="none" font-size="none" text-anchor="none" style="mix-blend-mode: normal"><path d="M0,16v-16h16v16z" fill="none"></path><path d="" fill="none"></path><g clip-path="url(#clip-1)"><g fill="#f76769"><path d="M2,3c0,-1.10457 0.89543,-2 2,-2h5.17157c0.53044,0 1.03913,0.21071 1.41423,0.58579l2.8284,2.82842c0.3751,0.37508 0.5858,0.88378 0.5858,1.41422v7.17157c0,1.1046 -0.8954,2 -2,2h-8c-1.10457,0 -2,-0.8954 -2,-2z"></path></g></g></g></svg>