<svg version="1.1" xmlns="http://www.w3.org/2000/svg" xmlns:xlink="http://www.w3.org/1999/xlink" width="16" height="16" viewBox="0,0,16,16"><defs><clipPath id="clip-1"><path d="M0,16v-16h16v16zM11.99259,5.84075c-0.16358,-0.16358 -0.40957,-0.26968 -0.65925,-0.27408h-6.66667c-0.24968,0.0044 -0.49567,0.1105 -0.65925,0.27408c-0.16358,0.16358 -0.26968,0.40957 -0.27408,0.65925v5c0.0044,0.24968 0.1105,0.49567 0.27408,0.65925c0.16358,0.16358 0.40957,0.26968 0.65925,0.27408h6.66667c0.24968,-0.0044 0.49567,-0.1105 0.65925,-0.27408c0.16358,-0.16358 0.26968,-0.40957 0.27408,-0.65925v-5c-0.0044,-0.24968 -0.1105,-0.49567 -0.27408,-0.65925zM7.05833,10.69183l0,-3.38367l2.63174,1.69183z" id="mask" fill="none"></path></clipPath></defs><g fill="none" fill-rule="nonzero" stroke="none" stroke-width="1" stroke-linecap="butt" stroke-linejoin="miter" stroke-miterlimit="10" stroke-dasharray="" stroke-dashoffset="0" font-family="none" font-weight="none" font-size="none" text-anchor="none" style="mix-blend-mode: normal"><path d="M0,16v-16h16v16z" fill="none"></path><path d="" fill="none"></path><g clip-path="url(#clip-1)"><g fill="#df8128"><path d="M2,3c0,-1.10457 0.89543,-2 2,-2h5.17157c0.53044,0 1.03913,0.21071 1.41423,0.58579l2.8284,2.82842c0.3751,0.37508 0.5858,0.88378 0.5858,1.41422v7.17157c0,1.1046 -0.8954,2 -2,2h-8c-1.10457,0 -2,-0.8954 -2,-2z"></path></g></g></g></svg>