<svg version="1.1" xmlns="http://www.w3.org/2000/svg" xmlns:xlink="http://www.w3.org/1999/xlink" width="16" height="16" viewBox="0,0,16,16"><defs><clipPath id="clip-1"><path d="M0,16v-16h16v5.73518c-0.25403,-0.19754 -0.57328,-0.31518 -0.92,-0.31518h-8.16c-0.82843,0 -1.5,0.67157 -1.5,1.5v8.16c0,0.34672 0.11764,0.66597 0.31518,0.92z" id="mask" fill="none"></path></clipPath></defs><g fill="none" fill-rule="nonzero" stroke="none" stroke-width="1" stroke-linecap="butt" stroke-linejoin="miter" stroke-miterlimit="10" stroke-dasharray="" stroke-dashoffset="0" font-family="none" font-weight="none" font-size="none" text-anchor="none" style="mix-blend-mode: normal"><path d="M0,16v-16h16v16z" fill="none"></path><g id="icon" fill="#c2185b"><path d="M6.92,6.92v8.16h8.16v-8.16zM11.796,11.54h-0.97v2.786h-0.7v-2.786h-0.97v-0.614h2.64zM14.55,14.326h-2.24v-3.4h0.7v2.784h1.54z"></path></g><path d="" fill="none"></path><path d="M15.08,15.08l-4.254,-0.754l-3.906,0.754l2.236,-3.54v-0.614l-2.236,-4.006l3.206,4.62h0.7l0.97,-0.614h0.514l2.77,-4.006l-2.07,4.006l1.54,2.784l0.53,1.37" fill="none"></path><g clip-path="url(#clip-1)"><g fill="#8b98a9"><path d="M2,3c0,-1.10457 0.89543,-2 2,-2h5.17157c0.53044,0 1.03913,0.21071 1.41423,0.58579l2.8284,2.82842c0.3751,0.37508 0.5858,0.88378 0.5858,1.41422v7.17157c0,1.1046 -0.8954,2 -2,2h-8c-1.10457,0 -2,-0.8954 -2,-2z"></path></g></g></g></svg>