<svg version="1.1" xmlns="http://www.w3.org/2000/svg" xmlns:xlink="http://www.w3.org/1999/xlink" width="16" height="16" viewBox="0,0,16,16"><defs><clipPath id="clip-1"><path d="M0,16v-16h16v5.73518c-0.25403,-0.19754 -0.57328,-0.31518 -0.92,-0.31518h-8.16c-0.82843,0 -1.5,0.67157 -1.5,1.5v8.16c0,0.34672 0.11764,0.66597 0.31518,0.92z" id="mask" fill="none"></path></clipPath></defs><g fill="none" fill-rule="none" stroke="none" stroke-width="1" stroke-linecap="butt" stroke-linejoin="none" stroke-miterlimit="none" stroke-dasharray="" stroke-dashoffset="0" font-family="none" font-weight="none" font-size="none" text-anchor="none" style="mix-blend-mode: normal"><path d="M0,16v-16h16v16z" fill="none" fill-rule="nonzero" stroke-linejoin="miter" stroke-miterlimit="10"></path><g id="icon" fill="#0288d1" fill-rule="evenodd" stroke-linejoin="round" stroke-miterlimit="1.414"><path d="M6.92,6.92v8.16h8.16v-8.16zM13.1204,10.8834v0.00012c0.07824,0.00024 0.16718,0.00426 0.23406,0.01152c0.27238,0.02946 0.4845,0.14698 0.66496,0.36832c0.08986,0.11026 0.1206,0.1585 0.11406,0.17914c-0.00422,0.01332 -0.06588,0.05748 -0.26192,0.1876c-0.19258,0.12786 -0.2546,0.16616 -0.269,0.16616c-0.01462,0 -0.04506,-0.03132 -0.08892,-0.09146c-0.0845,-0.11578 -0.17076,-0.16862 -0.3041,-0.18624c-0.1434,-0.019 -0.27204,0.0262 -0.33504,0.11776c-0.05386,0.07824 -0.062,0.20412 -0.0192,0.2956c0.0496,0.10594 0.13936,0.16452 0.48334,0.31534c0.39672,0.17396 0.59776,0.29302 0.74418,0.4408c0.15768,0.15912 0.23756,0.34284 0.2621,0.60272c0.01198,0.12668 -0.00266,0.2768 -0.0389,0.39886c-0.0889,0.29922 -0.3288,0.51832 -0.6804,0.62144c-0.0972,0.0285 -0.18764,0.04552 -0.2771,0.05208c-0.13658,0.01006 -0.33206,0.00452 -0.44972,-0.0126c-0.29768,-0.04338 -0.63372,-0.2166 -0.80128,-0.413c-0.08226,-0.09642 -0.18728,-0.2551 -0.18728,-0.283c0,-0.01348 0.00668,-0.02114 0.03312,-0.03794c0.07844,-0.04984 0.52788,-0.30676 0.5366,-0.30676c0.00528,0 0.02876,0.02766 0.05216,0.06148c0.05302,0.07656 0.1834,0.20814 0.24968,0.25204c0.05414,0.03586 0.12338,0.06464 0.20558,0.08542c0.04708,0.01174 0.072,0.01384 0.17472,0.01384c0.10496,-0.00004 0.12648,-0.0018 0.17344,-0.01442c0.1242,-0.03342 0.22114,-0.1026 0.26222,-0.18708c0.018,-0.0365 0.01836,-0.04106 0.01836,-0.1296v-0.0918l-0.02208,-0.0438c-0.05346,-0.10612 -0.16866,-0.17894 -0.5329,-0.3367c-0.1673,-0.07248 -0.3722,-0.17466 -0.4522,-0.2255c-0.18258,-0.11602 -0.30912,-0.24866 -0.39216,-0.41102c-0.0826,-0.16146 -0.0949,-0.22156 -0.0951,-0.46434c-0.0002,-0.19006 -0.00052,-0.18772 0.03882,-0.30902c0.0357,-0.11008 0.10878,-0.23304 0.18946,-0.3188c0.161,-0.17114 0.39626,-0.28114 0.64812,-0.30302c0.0322,-0.00306 0.07536,-0.00424 0.1223,-0.0041zM10.9532,10.92094h0.00008c0.48506,0.00024 0.76312,0.00192 0.76758,0.00472c0.0084,0.0052 0.00946,0.04742 0.00946,0.31684v0.31082l-0.48402,0.00176l-0.48402,0.00176v1.37426c0,0.75586 -0.00154,1.37876 -0.00364,1.38426c-0.00342,0.00926 -0.04066,0.00996 -0.3556,0.00996h-0.35174l-0.00364,-0.0142c-0.00234,-0.0078 -0.00406,-0.63074 -0.0041,-1.38428l-0.00012,-1.37008l-0.484,-0.00172l-0.48404,-0.00176v-0.30714c0,-0.2436 0.00168,-0.30884 0.00818,-0.31532c0.00666,-0.00686 0.25368,-0.00862 1.31804,-0.00968c0.2052,-0.0002 0.3899,-0.0003 0.5516,-0.0002z"></path></g><path d="" fill="none" fill-rule="nonzero" stroke-linejoin="miter" stroke-miterlimit="10"></path><path d="M15.08,15.08l-4.32136,-0.76464l-3.83864,0.76464l2.16358,-4.14918l-2.16358,-4.01082l2.63944,4.63504l0.84218,-0.6339l0.5516,-0.0002l0.00006,0l0.76758,0.00472l1.39954,-0.04226l1.9596,-3.9634l-0.94652,4.5225l0.94652,3.6375" fill="none" fill-rule="nonzero" stroke-linejoin="miter" stroke-miterlimit="10"></path><g clip-path="url(#clip-1)" fill-rule="nonzero" stroke-linejoin="miter" stroke-miterlimit="10"><g fill="#5d6a7d"><path d="M2,3c0,-1.10457 0.89543,-2 2,-2h5.17157c0.53044,0 1.03913,0.21071 1.41423,0.58579l2.8284,2.82842c0.3751,0.37508 0.5858,0.88378 0.5858,1.41422v7.17157c0,1.1046 -0.8954,2 -2,2h-8c-1.10457,0 -2,-0.8954 -2,-2z"></path></g></g></g></svg>